<?xml version="1.0" standalone="no"?>

<svg 
     version="1.1"
     baseProfile="full"
     xmlns="http://www.w3.org/2000/svg"
     xmlns:xlink="http://www.w3.org/1999/xlink"
     xmlns:ev="http://www.w3.org/2001/xml-events"
     xmlns:klighd="http://de.cau.cs.kieler/klighd"
     xml:space="preserve"
     x="0px"
     y="0px"
     width="1772px"
     height="1628px"
     viewBox="0 0 1772 1628"
     >
<title></title>
<desc>Creator: FreeHEP Graphics2D Driver Producer: de.cau.cs.kieler.klighd.piccolo.freehep.SemanticSVGGraphics2D Revision Source:  Date: Sunday, September 27, 2015 1:44:53 AM CEST</desc>
<g stroke-linejoin="miter" stroke-dashoffset="0" stroke-dasharray="none" stroke-width="1" stroke-miterlimit="10" stroke-linecap="square">
<g fill-opacity="1" fill-rule="nonzero" stroke="none" fill="#ffffff">
  <path d="M 0 0 L 1772 0 L 1772 1628 L 0 1628 L 0 0 z"/>
</g>
<g transform="matrix(1, 0, 0, 1, 387, 431.3333435058594)">
<g fill-opacity="0.09803921729326248" fill-rule="nonzero" stroke="none" fill="#000000">
  <path d="M 1 11 L 1 210 C 1 215.52284749830793 5.477152501692067 220 11 220 L 239 220 C 244.52284749830793 220 249 215.52284749830793 249 210 L 249 11 C 249 5.477152501692067 244.52284749830793 1 239 1 L 11 1 C 5.477152501692067 1 1 5.477152501692067 1 11 z"/>
</g>
</g>
<g transform="matrix(1, 0, 0, 1, 386, 430.3333435058594)">
<g fill-opacity="0.09803921729326248" fill-rule="nonzero" stroke="none" fill="#000000">
  <path d="M 1 11 L 1 210 C 1 215.52284749830793 5.477152501692067 220 11 220 L 239 220 C 244.52284749830793 220 249 215.52284749830793 249 210 L 249 11 C 249 5.477152501692067 244.52284749830793 1 239 1 L 11 1 C 5.477152501692067 1 1 5.477152501692067 1 11 z"/>
</g>
</g>
<g transform="matrix(1, 0, 0, 1, 385, 429.3333435058594)">
<g fill-opacity="0.09803921729326248" fill-rule="nonzero" stroke="none" fill="#000000">
  <path d="M 1 11 L 1 210 C 1 215.52284749830793 5.477152501692067 220 11 220 L 239 220 C 244.52284749830793 220 249 215.52284749830793 249 210 L 249 11 C 249 5.477152501692067 244.52284749830793 1 239 1 L 11 1 C 5.477152501692067 1 1 5.477152501692067 1 11 z"/>
</g>
</g>
<g transform="matrix(1, 0, 0, 1, 384, 428.3333435058594)">
<g fill-opacity="0.09803921729326248" fill-rule="nonzero" stroke="none" fill="#000000">
  <path d="M 1 11 L 1 210 C 1 215.52284749830793 5.477152501692067 220 11 220 L 239 220 C 244.52284749830793 220 249 215.52284749830793 249 210 L 249 11 C 249 5.477152501692067 244.52284749830793 1 239 1 L 11 1 C 5.477152501692067 1 1 5.477152501692067 1 11 z"/>
</g>
</g>
<g transform="matrix(1, 0, 0, 1, 383, 427.3333435058594)">
<g fill-opacity="1" fill-rule="nonzero" stroke="none" fill="#ffffff">
  <path d="M 1 11 L 1 210 C 1 215.52284749830793 5.477152501692067 220 11 220 L 239 220 C 244.52284749830793 220 249 215.52284749830793 249 210 L 249 11 C 249 5.477152501692067 244.52284749830793 1 239 1 L 11 1 C 5.477152501692067 1 1 5.477152501692067 1 11 z"/>
</g>
</g>
<defs>
  <linearGradient id="gradient-0" gradientUnits="objectBoundingBox" gradientTransform="rotate(0.0)" >
    <stop offset="0" stop-color="#ffffff" opacity-stop="1.0" />
    <stop offset="1" stop-color="#fffacd" opacity-stop="1.0" />
  </linearGradient>
</defs>
<g stroke="url(#gradient-0)">
<g transform="matrix(1, 0, 0, 1, 383, 427.3333435058594)">
<g fill-opacity="1" fill-rule="nonzero" stroke="none" fill="url(#gradient-0)">
  <path d="M 1 11 L 1 210 C 1 215.52284749830793 5.477152501692067 220 11 220 L 239 220 C 244.52284749830793 220 249 215.52284749830793 249 210 L 249 11 C 249 5.477152501692067 244.52284749830793 1 239 1 L 11 1 C 5.477152501692067 1 1 5.477152501692067 1 11 z"/>
</g>
</g>
<g transform="matrix(1, 0, 0, 1, 383, 427.3333435058594)">
<g stroke-width="2" stroke-linecap="butt" fill="none" stroke-opacity="1" stroke="#000000">
  <path d="M 1 11 L 1 210 C 1 215.52284749830793 5.477152501692067 220 11 220 L 239 220 C 244.52284749830793 220 249 215.52284749830793 249 210 L 249 11 C 249 5.477152501692067 244.52284749830793 1 239 1 L 11 1 C 5.477152501692067 1 1 5.477152501692067 1 11 z"/>
</g>
</g>
<g transform="matrix(1, 0, 0, 1, 393, 484.0833435058594)">
<clipPath id="clip1">
  <path d="M -393 -484.0833435058594 L -393 1143.9166564941406 L 1379 1143.9166564941406 L 1379 -484.0833435058594 z"/>
</clipPath>
<g clip-path="url(#clip1)">
<text fill-opacity="1" font-style="normal" font-family="Helvetica" font-weight="normal" stroke="none" fill="#000000" font-size="6.666666507720947px" x="0" y="0"><tspan x="0" dy="13.0">org.spp.cocome.behavior.generator</tspan>
</text>
</g>
</g>
<g transform="matrix(1, 0, 0, 1, 436.5, 574.5833435058594)">
<clipPath id="clip2">
  <path d="M -436.5 -574.5833435058594 L -436.5 1053.4166564941406 L 1335.5 1053.4166564941406 L 1335.5 -574.5833435058594 z"/>
</clipPath>
<g clip-path="url(#clip2)">
<text fill-opacity="1" font-style="normal" font-family="Helvetica" font-weight="bold" stroke="none" fill="#000000" font-size="6.666666507720947px" x="0" y="0"><tspan x="0" dy="13.0">BehaviorGenerator</tspan>
</text>
</g>
</g>
<g transform="matrix(1, 0, 0, 1, 633, 620.3333435058594)">
<g fill-opacity="1" fill-rule="nonzero" stroke="none" fill="#000000">
  <path d="M 0.5 0.5 L 2.5 0.5 L 2.5 2.5 L 0.5 2.5 L 0.5 0.5 z"/>
</g>
</g>
<g transform="matrix(1, 0, 0, 1, 633, 620.3333435058594)">
<g stroke-linejoin="round" stroke-linecap="butt" fill="none" stroke-opacity="1" stroke="#000000">
  <path d="M 0.5 0.5 L 2.5 0.5 L 2.5 2.5 L 0.5 2.5 L 0.5 0.5 z"/>
</g>
</g>
<g transform="matrix(1, 0, 0, 1, 633, 480.3333435058594)">
<g fill-opacity="1" fill-rule="nonzero" stroke="none" fill="#000000">
  <path d="M 0.5 0.5 L 2.5 0.5 L 2.5 2.5 L 0.5 2.5 L 0.5 0.5 z"/>
</g>
</g>
<g transform="matrix(1, 0, 0, 1, 633, 480.3333435058594)">
<g stroke-linejoin="round" stroke-linecap="butt" fill="none" stroke-opacity="1" stroke="#000000">
  <path d="M 0.5 0.5 L 2.5 0.5 L 2.5 2.5 L 0.5 2.5 L 0.5 0.5 z"/>
</g>
</g>
<g transform="matrix(1, 0, 0, 1, 633, 564.3333435058594)">
<g fill-opacity="1" fill-rule="nonzero" stroke="none" fill="#000000">
  <path d="M 0.5 0.5 L 2.5 0.5 L 2.5 2.5 L 0.5 2.5 L 0.5 0.5 z"/>
</g>
</g>
<g transform="matrix(1, 0, 0, 1, 633, 564.3333435058594)">
<g stroke-linejoin="round" stroke-linecap="butt" fill="none" stroke-opacity="1" stroke="#000000">
  <path d="M 0.5 0.5 L 2.5 0.5 L 2.5 2.5 L 0.5 2.5 L 0.5 0.5 z"/>
</g>
</g>
<g transform="matrix(1, 0, 0, 1, 633, 592.3333435058594)">
<g fill-opacity="1" fill-rule="nonzero" stroke="none" fill="#000000">
  <path d="M 0.5 0.5 L 2.5 0.5 L 2.5 2.5 L 0.5 2.5 L 0.5 0.5 z"/>
</g>
</g>
<g transform="matrix(1, 0, 0, 1, 633, 592.3333435058594)">
<g stroke-linejoin="round" stroke-linecap="butt" fill="none" stroke-opacity="1" stroke="#000000">
  <path d="M 0.5 0.5 L 2.5 0.5 L 2.5 2.5 L 0.5 2.5 L 0.5 0.5 z"/>
</g>
</g>
<g transform="matrix(1, 0, 0, 1, 633, 536.3333435058594)">
<g fill-opacity="1" fill-rule="nonzero" stroke="none" fill="#000000">
  <path d="M 0.5 0.5 L 2.5 0.5 L 2.5 2.5 L 0.5 2.5 L 0.5 0.5 z"/>
</g>
</g>
<g transform="matrix(1, 0, 0, 1, 633, 536.3333435058594)">
<g stroke-linejoin="round" stroke-linecap="butt" fill="none" stroke-opacity="1" stroke="#000000">
  <path d="M 0.5 0.5 L 2.5 0.5 L 2.5 2.5 L 0.5 2.5 L 0.5 0.5 z"/>
</g>
</g>
<g transform="matrix(1, 0, 0, 1, 633, 452.3333435058594)">
<g fill-opacity="1" fill-rule="nonzero" stroke="none" fill="#000000">
  <path d="M 0.5 0.5 L 2.5 0.5 L 2.5 2.5 L 0.5 2.5 L 0.5 0.5 z"/>
</g>
</g>
<g transform="matrix(1, 0, 0, 1, 633, 452.3333435058594)">
<g stroke-linejoin="round" stroke-linecap="butt" fill="none" stroke-opacity="1" stroke="#000000">
  <path d="M 0.5 0.5 L 2.5 0.5 L 2.5 2.5 L 0.5 2.5 L 0.5 0.5 z"/>
</g>
</g>
<g transform="matrix(1, 0, 0, 1, 633, 508.3333435058594)">
<g fill-opacity="1" fill-rule="nonzero" stroke="none" fill="#000000">
  <path d="M 0.5 0.5 L 2.5 0.5 L 2.5 2.5 L 0.5 2.5 L 0.5 0.5 z"/>
</g>
</g>
<g transform="matrix(1, 0, 0, 1, 633, 508.3333435058594)">
<g stroke-linejoin="round" stroke-linecap="butt" fill="none" stroke-opacity="1" stroke="#000000">
  <path d="M 0.5 0.5 L 2.5 0.5 L 2.5 2.5 L 0.5 2.5 L 0.5 0.5 z"/>
</g>
</g>
<g transform="matrix(1, 0, 0, 1, 767, 766.3333129882812)">
<g fill-opacity="0.09803921729326248" fill-rule="nonzero" stroke="none" fill="#000000">
  <path d="M 1 11 L 1 72 C 1 77.52284749830794 5.477152501692067 82 11 82 L 239 82 C 244.52284749830793 82 249 77.52284749830794 249 72 L 249 11 C 249 5.477152501692067 244.52284749830793 1 239 1 L 11 1 C 5.477152501692067 1 1 5.477152501692067 1 11 z"/>
</g>
</g>
<g transform="matrix(1, 0, 0, 1, 766, 765.3333129882812)">
<g fill-opacity="0.09803921729326248" fill-rule="nonzero" stroke="none" fill="#000000">
  <path d="M 1 11 L 1 72 C 1 77.52284749830794 5.477152501692067 82 11 82 L 239 82 C 244.52284749830793 82 249 77.52284749830794 249 72 L 249 11 C 249 5.477152501692067 244.52284749830793 1 239 1 L 11 1 C 5.477152501692067 1 1 5.477152501692067 1 11 z"/>
</g>
</g>
<g transform="matrix(1, 0, 0, 1, 765, 764.3333129882812)">
<g fill-opacity="0.09803921729326248" fill-rule="nonzero" stroke="none" fill="#000000">
  <path d="M 1 11 L 1 72 C 1 77.52284749830794 5.477152501692067 82 11 82 L 239 82 C 244.52284749830793 82 249 77.52284749830794 249 72 L 249 11 C 249 5.477152501692067 244.52284749830793 1 239 1 L 11 1 C 5.477152501692067 1 1 5.477152501692067 1 11 z"/>
</g>
</g>
<g transform="matrix(1, 0, 0, 1, 764, 763.3333129882812)">
<g fill-opacity="0.09803921729326248" fill-rule="nonzero" stroke="none" fill="#000000">
  <path d="M 1 11 L 1 72 C 1 77.52284749830794 5.477152501692067 82 11 82 L 239 82 C 244.52284749830793 82 249 77.52284749830794 249 72 L 249 11 C 249 5.477152501692067 244.52284749830793 1 239 1 L 11 1 C 5.477152501692067 1 1 5.477152501692067 1 11 z"/>
</g>
</g>
<g transform="matrix(1, 0, 0, 1, 763, 762.3333129882812)">
<g fill-opacity="1" fill-rule="nonzero" stroke="none" fill="#ffffff">
  <path d="M 1 11 L 1 72 C 1 77.52284749830794 5.477152501692067 82 11 82 L 239 82 C 244.52284749830793 82 249 77.52284749830794 249 72 L 249 11 C 249 5.477152501692067 244.52284749830793 1 239 1 L 11 1 C 5.477152501692067 1 1 5.477152501692067 1 11 z"/>
</g>
</g>
<g stroke="url(#gradient-0)">
<g transform="matrix(1, 0, 0, 1, 763, 762.3333129882812)">
<g fill-opacity="1" fill-rule="nonzero" stroke="none" fill="url(#gradient-0)">
  <path d="M 1 11 L 1 72 C 1 77.52284749830794 5.477152501692067 82 11 82 L 239 82 C 244.52284749830793 82 249 77.52284749830794 249 72 L 249 11 C 249 5.477152501692067 244.52284749830793 1 239 1 L 11 1 C 5.477152501692067 1 1 5.477152501692067 1 11 z"/>
</g>
</g>
<g transform="matrix(1, 0, 0, 1, 763, 762.3333129882812)">
<g stroke-width="2" stroke-linecap="butt" fill="none" stroke-opacity="1" stroke="#000000">
  <path d="M 1 11 L 1 72 C 1 77.52284749830794 5.477152501692067 82 11 82 L 239 82 C 244.52284749830793 82 249 77.52284749830794 249 72 L 249 11 C 249 5.477152501692067 244.52284749830793 1 239 1 L 11 1 C 5.477152501692067 1 1 5.477152501692067 1 11 z"/>
</g>
</g>
<g transform="matrix(1, 0, 0, 1, 773, 784.5833129882812)">
<clipPath id="clip3">
  <path d="M -773 -784.5833129882812 L -773 843.4166870117188 L 999 843.4166870117188 L 999 -784.5833129882812 z"/>
</clipPath>
<g clip-path="url(#clip3)">
<text fill-opacity="1" font-style="normal" font-family="Helvetica" font-weight="normal" stroke="none" fill="#000000" font-size="6.666666507720947px" x="0" y="0"><tspan x="0" dy="13.0">org.spp.cocome.behavior.generator</tspan>
</text>
</g>
</g>
<g transform="matrix(1, 0, 0, 1, 800, 806.0833129882812)">
<clipPath id="clip4">
  <path d="M -800 -806.0833129882812 L -800 821.9166870117188 L 972 821.9166870117188 L 972 -806.0833129882812 z"/>
</clipPath>
<g clip-path="url(#clip4)">
<text fill-opacity="1" font-style="normal" font-family="Helvetica" font-weight="bold" stroke="none" fill="#000000" font-size="6.666666507720947px" x="0" y="0"><tspan x="0" dy="13.0">BehaviorNameResolver</tspan>
</text>
</g>
</g>
<g transform="matrix(1, 0, 0, 1, 760, 802.3333129882812)">
<g fill-opacity="1" fill-rule="nonzero" stroke="none" fill="#000000">
  <path d="M 0.5 0.5 L 2.5 0.5 L 2.5 2.5 L 0.5 2.5 L 0.5 0.5 z"/>
</g>
</g>
<g transform="matrix(1, 0, 0, 1, 760, 802.3333129882812)">
<g stroke-linejoin="round" stroke-linecap="butt" fill="none" stroke-opacity="1" stroke="#000000">
  <path d="M 0.5 0.5 L 2.5 0.5 L 2.5 2.5 L 0.5 2.5 L 0.5 0.5 z"/>
</g>
</g>
<g transform="matrix(1, 0, 0, 1, 1013, 802.3333129882812)">
<g fill-opacity="1" fill-rule="nonzero" stroke="none" fill="#000000">
  <path d="M 0.5 0.5 L 2.5 0.5 L 2.5 2.5 L 0.5 2.5 L 0.5 0.5 z"/>
</g>
</g>
<g transform="matrix(1, 0, 0, 1, 1013, 802.3333129882812)">
<g stroke-linejoin="round" stroke-linecap="butt" fill="none" stroke-opacity="1" stroke="#000000">
  <path d="M 0.5 0.5 L 2.5 0.5 L 2.5 2.5 L 0.5 2.5 L 0.5 0.5 z"/>
</g>
</g>
<g transform="matrix(1, 0, 0, 1, 4, 926.5)">
<g fill-opacity="0.09803921729326248" fill-rule="nonzero" stroke="none" fill="#000000">
  <path d="M 1 11 L 1 219 C 1 224.52284749830793 5.477152501692067 229 11 229 L 239 229 C 244.52284749830793 229 249 224.52284749830793 249 219 L 249 11 C 249 5.477152501692067 244.52284749830793 1 239 1 L 11 1 C 5.477152501692067 1 1 5.477152501692067 1 11 z"/>
</g>
</g>
<g transform="matrix(1, 0, 0, 1, 3, 925.5)">
<g fill-opacity="0.09803921729326248" fill-rule="nonzero" stroke="none" fill="#000000">
  <path d="M 1 11 L 1 219 C 1 224.52284749830793 5.477152501692067 229 11 229 L 239 229 C 244.52284749830793 229 249 224.52284749830793 249 219 L 249 11 C 249 5.477152501692067 244.52284749830793 1 239 1 L 11 1 C 5.477152501692067 1 1 5.477152501692067 1 11 z"/>
</g>
</g>
<g transform="matrix(1, 0, 0, 1, 2, 924.5)">
<g fill-opacity="0.09803921729326248" fill-rule="nonzero" stroke="none" fill="#000000">
  <path d="M 1 11 L 1 219 C 1 224.52284749830793 5.477152501692067 229 11 229 L 239 229 C 244.52284749830793 229 249 224.52284749830793 249 219 L 249 11 C 249 5.477152501692067 244.52284749830793 1 239 1 L 11 1 C 5.477152501692067 1 1 5.477152501692067 1 11 z"/>
</g>
</g>
<g transform="matrix(1, 0, 0, 1, 1, 923.5)">
<g fill-opacity="0.09803921729326248" fill-rule="nonzero" stroke="none" fill="#000000">
  <path d="M 1 11 L 1 219 C 1 224.52284749830793 5.477152501692067 229 11 229 L 239 229 C 244.52284749830793 229 249 224.52284749830793 249 219 L 249 11 C 249 5.477152501692067 244.52284749830793 1 239 1 L 11 1 C 5.477152501692067 1 1 5.477152501692067 1 11 z"/>
</g>
</g>
<g transform="matrix(1, 0, 0, 1, 0, 922.5)">
<g fill-opacity="1" fill-rule="nonzero" stroke="none" fill="#ffffff">
  <path d="M 1 11 L 1 219 C 1 224.52284749830793 5.477152501692067 229 11 229 L 239 229 C 244.52284749830793 229 249 224.52284749830793 249 219 L 249 11 C 249 5.477152501692067 244.52284749830793 1 239 1 L 11 1 C 5.477152501692067 1 1 5.477152501692067 1 11 z"/>
</g>
</g>
<g stroke="url(#gradient-0)">
<g transform="matrix(1, 0, 0, 1, 0, 922.5)">
<g fill-opacity="1" fill-rule="nonzero" stroke="none" fill="url(#gradient-0)">
  <path d="M 1 11 L 1 219 C 1 224.52284749830793 5.477152501692067 229 11 229 L 239 229 C 244.52284749830793 229 249 224.52284749830793 249 219 L 249 11 C 249 5.477152501692067 244.52284749830793 1 239 1 L 11 1 C 5.477152501692067 1 1 5.477152501692067 1 11 z"/>
</g>
</g>
<g transform="matrix(1, 0, 0, 1, 0, 922.5)">
<g stroke-width="2" stroke-linecap="butt" fill="none" stroke-opacity="1" stroke="#000000">
  <path d="M 1 11 L 1 219 C 1 224.52284749830793 5.477152501692067 229 11 229 L 239 229 C 244.52284749830793 229 249 224.52284749830793 249 219 L 249 11 C 249 5.477152501692067 244.52284749830793 1 239 1 L 11 1 C 5.477152501692067 1 1 5.477152501692067 1 11 z"/>
</g>
</g>
<g transform="matrix(1, 0, 0, 1, 10, 981.5)">
<clipPath id="clip5">
  <path d="M -10 -981.5 L -10 646.5 L 1762 646.5 L 1762 -981.5 z"/>
</clipPath>
<g clip-path="url(#clip5)">
<text fill-opacity="1" font-style="normal" font-family="Helvetica" font-weight="normal" stroke="none" fill="#000000" font-size="6.666666507720947px" x="0" y="0"><tspan x="0" dy="13.0">org.spp.cocome.behavior.generator</tspan>
</text>
</g>
</g>
<g transform="matrix(1, 0, 0, 1, 12, 1076.5)">
<clipPath id="clip6">
  <path d="M -12 -1076.5 L -12 551.5 L 1760 551.5 L 1760 -1076.5 z"/>
</clipPath>
<g clip-path="url(#clip6)">
<text fill-opacity="1" font-style="normal" font-family="Helvetica" font-weight="bold" stroke="none" fill="#000000" font-size="6.666666507720947px" x="0" y="0"><tspan x="0" dy="13.0">BehaviorExpressionGenerator</tspan>
</text>
</g>
</g>
<g transform="matrix(1, 0, 0, 1, 250, 1004.5)">
<g fill-opacity="1" fill-rule="nonzero" stroke="none" fill="#000000">
  <path d="M 0.5 0.5 L 2.5 0.5 L 2.5 2.5 L 0.5 2.5 L 0.5 0.5 z"/>
</g>
</g>
<g transform="matrix(1, 0, 0, 1, 250, 1004.5)">
<g stroke-linejoin="round" stroke-linecap="butt" fill="none" stroke-opacity="1" stroke="#000000">
  <path d="M 0.5 0.5 L 2.5 0.5 L 2.5 2.5 L 0.5 2.5 L 0.5 0.5 z"/>
</g>
</g>
<g transform="matrix(1, 0, 0, 1, 250, 1061.5)">
<g fill-opacity="1" fill-rule="nonzero" stroke="none" fill="#000000">
  <path d="M 0.5 0.5 L 3.5 0.5 L 3.5 3.5 L 0.5 3.5 L 0.5 0.5 z"/>
</g>
</g>
<g transform="matrix(1, 0, 0, 1, 250, 1061.5)">
<g stroke-linejoin="round" stroke-linecap="butt" fill="none" stroke-opacity="1" stroke="#000000">
  <path d="M 0.5 0.5 L 3.5 0.5 L 3.5 3.5 L 0.5 3.5 L 0.5 0.5 z"/>
</g>
</g>
<g transform="matrix(1, 0, 0, 1, 250, 976.5)">
<g fill-opacity="1" fill-rule="nonzero" stroke="none" fill="#000000">
  <path d="M 0.5 0.5 L 2.5 0.5 L 2.5 2.5 L 0.5 2.5 L 0.5 0.5 z"/>
</g>
</g>
<g transform="matrix(1, 0, 0, 1, 250, 976.5)">
<g stroke-linejoin="round" stroke-linecap="butt" fill="none" stroke-opacity="1" stroke="#000000">
  <path d="M 0.5 0.5 L 2.5 0.5 L 2.5 2.5 L 0.5 2.5 L 0.5 0.5 z"/>
</g>
</g>
<g transform="matrix(1, 0, 0, 1, 250, 1032.5)">
<g fill-opacity="1" fill-rule="nonzero" stroke="none" fill="#000000">
  <path d="M 0.5 0.5 L 3.5 0.5 L 3.5 3.5 L 0.5 3.5 L 0.5 0.5 z"/>
</g>
</g>
<g transform="matrix(1, 0, 0, 1, 250, 1032.5)">
<g stroke-linejoin="round" stroke-linecap="butt" fill="none" stroke-opacity="1" stroke="#000000">
  <path d="M 0.5 0.5 L 3.5 0.5 L 3.5 3.5 L 0.5 3.5 L 0.5 0.5 z"/>
</g>
</g>
<g transform="matrix(1, 0, 0, 1, 250, 1090.5)">
<g fill-opacity="1" fill-rule="nonzero" stroke="none" fill="#000000">
  <path d="M 0.5 0.5 L 8.5 0.5 L 8.5 8.5 L 0.5 8.5 L 0.5 0.5 z"/>
</g>
</g>
<g transform="matrix(1, 0, 0, 1, 250, 1090.5)">
<g stroke-linejoin="round" stroke-linecap="butt" fill="none" stroke-opacity="1" stroke="#000000">
  <path d="M 0.5 0.5 L 8.5 0.5 L 8.5 8.5 L 0.5 8.5 L 0.5 0.5 z"/>
</g>
</g>
<g transform="matrix(1, 0, 0, 1, 250, 947.5)">
<g fill-opacity="1" fill-rule="nonzero" stroke="none" fill="#000000">
  <path d="M 0.5 0.5 L 3.5 0.5 L 3.5 3.5 L 0.5 3.5 L 0.5 0.5 z"/>
</g>
</g>
<g transform="matrix(1, 0, 0, 1, 250, 947.5)">
<g stroke-linejoin="round" stroke-linecap="butt" fill="none" stroke-opacity="1" stroke="#000000">
  <path d="M 0.5 0.5 L 3.5 0.5 L 3.5 3.5 L 0.5 3.5 L 0.5 0.5 z"/>
</g>
</g>
<g transform="matrix(1, 0, 0, 1, 250, 1124.5)">
<g fill-opacity="1" fill-rule="nonzero" stroke="none" fill="#000000">
  <path d="M 0.5 0.5 L 2.5 0.5 L 2.5 2.5 L 0.5 2.5 L 0.5 0.5 z"/>
</g>
</g>
<g transform="matrix(1, 0, 0, 1, 250, 1124.5)">
<g stroke-linejoin="round" stroke-linecap="butt" fill="none" stroke-opacity="1" stroke="#000000">
  <path d="M 0.5 0.5 L 2.5 0.5 L 2.5 2.5 L 0.5 2.5 L 0.5 0.5 z"/>
</g>
</g>
<g transform="matrix(1, 0, 0, 1, 387, 973.5)">
<g fill-opacity="0.09803921729326248" fill-rule="nonzero" stroke="none" fill="#000000">
  <path d="M 1 11 L 1 119 C 1 124.52284749830794 5.477152501692067 129 11 129 L 239 129 C 244.52284749830793 129 249 124.52284749830794 249 119 L 249 11 C 249 5.477152501692067 244.52284749830793 1 239 1 L 11 1 C 5.477152501692067 1 1 5.477152501692067 1 11 z"/>
</g>
</g>
<g transform="matrix(1, 0, 0, 1, 386, 972.5)">
<g fill-opacity="0.09803921729326248" fill-rule="nonzero" stroke="none" fill="#000000">
  <path d="M 1 11 L 1 119 C 1 124.52284749830794 5.477152501692067 129 11 129 L 239 129 C 244.52284749830793 129 249 124.52284749830794 249 119 L 249 11 C 249 5.477152501692067 244.52284749830793 1 239 1 L 11 1 C 5.477152501692067 1 1 5.477152501692067 1 11 z"/>
</g>
</g>
<g transform="matrix(1, 0, 0, 1, 385, 971.5)">
<g fill-opacity="0.09803921729326248" fill-rule="nonzero" stroke="none" fill="#000000">
  <path d="M 1 11 L 1 119 C 1 124.52284749830794 5.477152501692067 129 11 129 L 239 129 C 244.52284749830793 129 249 124.52284749830794 249 119 L 249 11 C 249 5.477152501692067 244.52284749830793 1 239 1 L 11 1 C 5.477152501692067 1 1 5.477152501692067 1 11 z"/>
</g>
</g>
<g transform="matrix(1, 0, 0, 1, 384, 970.5)">
<g fill-opacity="0.09803921729326248" fill-rule="nonzero" stroke="none" fill="#000000">
  <path d="M 1 11 L 1 119 C 1 124.52284749830794 5.477152501692067 129 11 129 L 239 129 C 244.52284749830793 129 249 124.52284749830794 249 119 L 249 11 C 249 5.477152501692067 244.52284749830793 1 239 1 L 11 1 C 5.477152501692067 1 1 5.477152501692067 1 11 z"/>
</g>
</g>
<g transform="matrix(1, 0, 0, 1, 383, 969.5)">
<g fill-opacity="1" fill-rule="nonzero" stroke="none" fill="#ffffff">
  <path d="M 1 11 L 1 119 C 1 124.52284749830794 5.477152501692067 129 11 129 L 239 129 C 244.52284749830793 129 249 124.52284749830794 249 119 L 249 11 C 249 5.477152501692067 244.52284749830793 1 239 1 L 11 1 C 5.477152501692067 1 1 5.477152501692067 1 11 z"/>
</g>
</g>
<g stroke="url(#gradient-0)">
<g transform="matrix(1, 0, 0, 1, 383, 969.5)">
<g fill-opacity="1" fill-rule="nonzero" stroke="none" fill="url(#gradient-0)">
  <path d="M 1 11 L 1 119 C 1 124.52284749830794 5.477152501692067 129 11 129 L 239 129 C 244.52284749830793 129 249 124.52284749830794 249 119 L 249 11 C 249 5.477152501692067 244.52284749830793 1 239 1 L 11 1 C 5.477152501692067 1 1 5.477152501692067 1 11 z"/>
</g>
</g>
<g transform="matrix(1, 0, 0, 1, 383, 969.5)">
<g stroke-width="2" stroke-linecap="butt" fill="none" stroke-opacity="1" stroke="#000000">
  <path d="M 1 11 L 1 119 C 1 124.52284749830794 5.477152501692067 129 11 129 L 239 129 C 244.52284749830793 129 249 124.52284749830794 249 119 L 249 11 C 249 5.477152501692067 244.52284749830793 1 239 1 L 11 1 C 5.477152501692067 1 1 5.477152501692067 1 11 z"/>
</g>
</g>
<g transform="matrix(1, 0, 0, 1, 393, 1003.5)">
<clipPath id="clip7">
  <path d="M -393 -1003.5 L -393 624.5 L 1379 624.5 L 1379 -1003.5 z"/>
</clipPath>
<g clip-path="url(#clip7)">
<text fill-opacity="1" font-style="normal" font-family="Helvetica" font-weight="normal" stroke="none" fill="#000000" font-size="6.666666507720947px" x="0" y="0"><tspan x="0" dy="13.0">org.spp.cocome.behavior.generator</tspan>
</text>
</g>
</g>
<g transform="matrix(1, 0, 0, 1, 419, 1048.5)">
<clipPath id="clip8">
  <path d="M -419 -1048.5 L -419 579.5 L 1353 579.5 L 1353 -1048.5 z"/>
</clipPath>
<g clip-path="url(#clip8)">
<text fill-opacity="1" font-style="normal" font-family="Helvetica" font-weight="bold" stroke="none" fill="#000000" font-size="6.666666507720947px" x="0" y="0"><tspan x="0" dy="13.0">BehaviorTypeGenerator</tspan>
</text>
</g>
</g>
<g transform="matrix(1, 0, 0, 1, 379, 1032.5)">
<g fill-opacity="1" fill-rule="nonzero" stroke="none" fill="#000000">
  <path d="M 0.5 0.5 L 3.5 0.5 L 3.5 3.5 L 0.5 3.5 L 0.5 0.5 z"/>
</g>
</g>
<g transform="matrix(1, 0, 0, 1, 379, 1032.5)">
<g stroke-linejoin="round" stroke-linecap="butt" fill="none" stroke-opacity="1" stroke="#000000">
  <path d="M 0.5 0.5 L 3.5 0.5 L 3.5 3.5 L 0.5 3.5 L 0.5 0.5 z"/>
</g>
</g>
<g transform="matrix(1, 0, 0, 1, 633, 999.5)">
<g fill-opacity="1" fill-rule="nonzero" stroke="none" fill="#000000">
  <path d="M 0.5 0.5 L 2.5 0.5 L 2.5 2.5 L 0.5 2.5 L 0.5 0.5 z"/>
</g>
</g>
<g transform="matrix(1, 0, 0, 1, 633, 999.5)">
<g stroke-linejoin="round" stroke-linecap="butt" fill="none" stroke-opacity="1" stroke="#000000">
  <path d="M 0.5 0.5 L 2.5 0.5 L 2.5 2.5 L 0.5 2.5 L 0.5 0.5 z"/>
</g>
</g>
<g transform="matrix(1, 0, 0, 1, 633, 1032.5)">
<g fill-opacity="1" fill-rule="nonzero" stroke="none" fill="#000000">
  <path d="M 0.5 0.5 L 2.5 0.5 L 2.5 2.5 L 0.5 2.5 L 0.5 0.5 z"/>
</g>
</g>
<g transform="matrix(1, 0, 0, 1, 633, 1032.5)">
<g stroke-linejoin="round" stroke-linecap="butt" fill="none" stroke-opacity="1" stroke="#000000">
  <path d="M 0.5 0.5 L 2.5 0.5 L 2.5 2.5 L 0.5 2.5 L 0.5 0.5 z"/>
</g>
</g>
<g transform="matrix(1, 0, 0, 1, 633, 1065.5)">
<g fill-opacity="1" fill-rule="nonzero" stroke="none" fill="#000000">
  <path d="M 0.5 0.5 L 3.5 0.5 L 3.5 3.5 L 0.5 3.5 L 0.5 0.5 z"/>
</g>
</g>
<g transform="matrix(1, 0, 0, 1, 633, 1065.5)">
<g stroke-linejoin="round" stroke-linecap="butt" fill="none" stroke-opacity="1" stroke="#000000">
  <path d="M 0.5 0.5 L 3.5 0.5 L 3.5 3.5 L 0.5 3.5 L 0.5 0.5 z"/>
</g>
</g>
<g transform="matrix(1, 0, 0, 1, 765, 1017.5)">
<g fill-opacity="0.09803921729326248" fill-rule="nonzero" stroke="none" fill="#000000">
  <path d="M 1 11 L 1 170 C 1 175.52284749830793 5.477152501692067 180 11 180 L 239 180 C 244.52284749830793 180 249 175.52284749830793 249 170 L 249 11 C 249 5.477152501692067 244.52284749830793 1 239 1 L 11 1 C 5.477152501692067 1 1 5.477152501692067 1 11 z"/>
</g>
</g>
<g transform="matrix(1, 0, 0, 1, 764, 1016.5)">
<g fill-opacity="0.09803921729326248" fill-rule="nonzero" stroke="none" fill="#000000">
  <path d="M 1 11 L 1 170 C 1 175.52284749830793 5.477152501692067 180 11 180 L 239 180 C 244.52284749830793 180 249 175.52284749830793 249 170 L 249 11 C 249 5.477152501692067 244.52284749830793 1 239 1 L 11 1 C 5.477152501692067 1 1 5.477152501692067 1 11 z"/>
</g>
</g>
<g transform="matrix(1, 0, 0, 1, 763, 1015.5)">
<g fill-opacity="0.09803921729326248" fill-rule="nonzero" stroke="none" fill="#000000">
  <path d="M 1 11 L 1 170 C 1 175.52284749830793 5.477152501692067 180 11 180 L 239 180 C 244.52284749830793 180 249 175.52284749830793 249 170 L 249 11 C 249 5.477152501692067 244.52284749830793 1 239 1 L 11 1 C 5.477152501692067 1 1 5.477152501692067 1 11 z"/>
</g>
</g>
<g transform="matrix(1, 0, 0, 1, 762, 1014.5)">
<g fill-opacity="0.09803921729326248" fill-rule="nonzero" stroke="none" fill="#000000">
  <path d="M 1 11 L 1 170 C 1 175.52284749830793 5.477152501692067 180 11 180 L 239 180 C 244.52284749830793 180 249 175.52284749830793 249 170 L 249 11 C 249 5.477152501692067 244.52284749830793 1 239 1 L 11 1 C 5.477152501692067 1 1 5.477152501692067 1 11 z"/>
</g>
</g>
<g transform="matrix(1, 0, 0, 1, 761, 1013.5)">
<g fill-opacity="1" fill-rule="nonzero" stroke="none" fill="#ffffff">
  <path d="M 1 11 L 1 170 C 1 175.52284749830793 5.477152501692067 180 11 180 L 239 180 C 244.52284749830793 180 249 175.52284749830793 249 170 L 249 11 C 249 5.477152501692067 244.52284749830793 1 239 1 L 11 1 C 5.477152501692067 1 1 5.477152501692067 1 11 z"/>
</g>
</g>
<g stroke="url(#gradient-0)">
<g transform="matrix(1, 0, 0, 1, 761, 1013.5)">
<g fill-opacity="1" fill-rule="nonzero" stroke="none" fill="url(#gradient-0)">
  <path d="M 1 11 L 1 170 C 1 175.52284749830793 5.477152501692067 180 11 180 L 239 180 C 244.52284749830793 180 249 175.52284749830793 249 170 L 249 11 C 249 5.477152501692067 244.52284749830793 1 239 1 L 11 1 C 5.477152501692067 1 1 5.477152501692067 1 11 z"/>
</g>
</g>
<g transform="matrix(1, 0, 0, 1, 761, 1013.5)">
<g stroke-width="2" stroke-linecap="butt" fill="none" stroke-opacity="1" stroke="#000000">
  <path d="M 1 11 L 1 170 C 1 175.52284749830793 5.477152501692067 180 11 180 L 239 180 C 244.52284749830793 180 249 175.52284749830793 249 170 L 249 11 C 249 5.477152501692067 244.52284749830793 1 239 1 L 11 1 C 5.477152501692067 1 1 5.477152501692067 1 11 z"/>
</g>
</g>
<g transform="matrix(1, 0, 0, 1, 771, 1060.25)">
<clipPath id="clip9">
  <path d="M -771 -1060.25 L -771 567.75 L 1001 567.75 L 1001 -1060.25 z"/>
</clipPath>
<g clip-path="url(#clip9)">
<text fill-opacity="1" font-style="normal" font-family="Helvetica" font-weight="normal" stroke="none" fill="#000000" font-size="6.666666507720947px" x="0" y="0"><tspan x="0" dy="13.0">org.spp.cocome.behavior.generator</tspan>
</text>
</g>
</g>
<g transform="matrix(1, 0, 0, 1, 775.5, 1130.75)">
<clipPath id="clip10">
  <path d="M -775.5 -1130.75 L -775.5 497.25 L 996.5 497.25 L 996.5 -1130.75 z"/>
</clipPath>
<g clip-path="url(#clip10)">
<text fill-opacity="1" font-style="normal" font-family="Helvetica" font-weight="bold" stroke="none" fill="#000000" font-size="6.666666507720947px" x="0" y="0"><tspan x="0" dy="13.0">BehaviorStatementGenerator</tspan>
</text>
</g>
</g>
<g transform="matrix(1, 0, 0, 1, 757, 1132.5)">
<g fill-opacity="1" fill-rule="nonzero" stroke="none" fill="#000000">
  <path d="M 0.5 0.5 L 3.5 0.5 L 3.5 3.5 L 0.5 3.5 L 0.5 0.5 z"/>
</g>
</g>
<g transform="matrix(1, 0, 0, 1, 757, 1132.5)">
<g stroke-linejoin="round" stroke-linecap="butt" fill="none" stroke-opacity="1" stroke="#000000">
  <path d="M 0.5 0.5 L 3.5 0.5 L 3.5 3.5 L 0.5 3.5 L 0.5 0.5 z"/>
</g>
</g>
<g transform="matrix(1, 0, 0, 1, 758, 1071.5)">
<g fill-opacity="1" fill-rule="nonzero" stroke="none" fill="#000000">
  <path d="M 0.5 0.5 L 2.5 0.5 L 2.5 2.5 L 0.5 2.5 L 0.5 0.5 z"/>
</g>
</g>
<g transform="matrix(1, 0, 0, 1, 758, 1071.5)">
<g stroke-linejoin="round" stroke-linecap="butt" fill="none" stroke-opacity="1" stroke="#000000">
  <path d="M 0.5 0.5 L 2.5 0.5 L 2.5 2.5 L 0.5 2.5 L 0.5 0.5 z"/>
</g>
</g>
<g transform="matrix(1, 0, 0, 1, 1011, 1135.1666641235352)">
<g fill-opacity="1" fill-rule="nonzero" stroke="none" fill="#000000">
  <path d="M 0.5 0.5 L 2.5 0.5 L 2.5 2.5 L 0.5 2.5 L 0.5 0.5 z"/>
</g>
</g>
<g transform="matrix(1, 0, 0, 1, 1011, 1135.1666641235352)">
<g stroke-linejoin="round" stroke-linecap="butt" fill="none" stroke-opacity="1" stroke="#000000">
  <path d="M 0.5 0.5 L 2.5 0.5 L 2.5 2.5 L 0.5 2.5 L 0.5 0.5 z"/>
</g>
</g>
<g transform="matrix(1, 0, 0, 1, 1011, 1040.1666660308838)">
<g fill-opacity="1" fill-rule="nonzero" stroke="none" fill="#000000">
  <path d="M 0.5 0.5 L 3.5 0.5 L 3.5 3.5 L 0.5 3.5 L 0.5 0.5 z"/>
</g>
</g>
<g transform="matrix(1, 0, 0, 1, 1011, 1040.1666660308838)">
<g stroke-linejoin="round" stroke-linecap="butt" fill="none" stroke-opacity="1" stroke="#000000">
  <path d="M 0.5 0.5 L 3.5 0.5 L 3.5 3.5 L 0.5 3.5 L 0.5 0.5 z"/>
</g>
</g>
<g transform="matrix(1, 0, 0, 1, 1011, 1070.8333320617676)">
<g fill-opacity="1" fill-rule="nonzero" stroke="none" fill="#000000">
  <path d="M 0.5 0.5 L 2.5 0.5 L 2.5 2.5 L 0.5 2.5 L 0.5 0.5 z"/>
</g>
</g>
<g transform="matrix(1, 0, 0, 1, 1011, 1070.8333320617676)">
<g stroke-linejoin="round" stroke-linecap="butt" fill="none" stroke-opacity="1" stroke="#000000">
  <path d="M 0.5 0.5 L 2.5 0.5 L 2.5 2.5 L 0.5 2.5 L 0.5 0.5 z"/>
</g>
</g>
<g transform="matrix(1, 0, 0, 1, 1011, 1100.5)">
<g fill-opacity="1" fill-rule="nonzero" stroke="none" fill="#000000">
  <path d="M 0.5 0.5 L 7.5 0.5 L 7.5 7.5 L 0.5 7.5 L 0.5 0.5 z"/>
</g>
</g>
<g transform="matrix(1, 0, 0, 1, 1011, 1100.5)">
<g stroke-linejoin="round" stroke-linecap="butt" fill="none" stroke-opacity="1" stroke="#000000">
  <path d="M 0.5 0.5 L 7.5 0.5 L 7.5 7.5 L 0.5 7.5 L 0.5 0.5 z"/>
</g>
</g>
<g transform="matrix(1, 0, 0, 1, 1011, 1164.8333282470703)">
<g fill-opacity="1" fill-rule="nonzero" stroke="none" fill="#000000">
  <path d="M 0.5 0.5 L 2.5 0.5 L 2.5 2.5 L 0.5 2.5 L 0.5 0.5 z"/>
</g>
</g>
<g transform="matrix(1, 0, 0, 1, 1011, 1164.8333282470703)">
<g stroke-linejoin="round" stroke-linecap="butt" fill="none" stroke-opacity="1" stroke="#000000">
  <path d="M 0.5 0.5 L 2.5 0.5 L 2.5 2.5 L 0.5 2.5 L 0.5 0.5 z"/>
</g>
</g>
<g transform="matrix(1, 0, 0, 1, 1122, 798.5)">
<g fill-opacity="0.09803921729326248" fill-rule="nonzero" stroke="none" fill="#000000">
  <path d="M 1 11 L 1 196 C 1 201.52284749830793 5.477152501692067 206 11 206 L 239 206 C 244.52284749830793 206 249 201.52284749830793 249 196 L 249 11 C 249 5.477152501692067 244.52284749830793 1 239 1 L 11 1 C 5.477152501692067 1 1 5.477152501692067 1 11 z"/>
</g>
</g>
<g transform="matrix(1, 0, 0, 1, 1121, 797.5)">
<g fill-opacity="0.09803921729326248" fill-rule="nonzero" stroke="none" fill="#000000">
  <path d="M 1 11 L 1 196 C 1 201.52284749830793 5.477152501692067 206 11 206 L 239 206 C 244.52284749830793 206 249 201.52284749830793 249 196 L 249 11 C 249 5.477152501692067 244.52284749830793 1 239 1 L 11 1 C 5.477152501692067 1 1 5.477152501692067 1 11 z"/>
</g>
</g>
<g transform="matrix(1, 0, 0, 1, 1120, 796.5)">
<g fill-opacity="0.09803921729326248" fill-rule="nonzero" stroke="none" fill="#000000">
  <path d="M 1 11 L 1 196 C 1 201.52284749830793 5.477152501692067 206 11 206 L 239 206 C 244.52284749830793 206 249 201.52284749830793 249 196 L 249 11 C 249 5.477152501692067 244.52284749830793 1 239 1 L 11 1 C 5.477152501692067 1 1 5.477152501692067 1 11 z"/>
</g>
</g>
<g transform="matrix(1, 0, 0, 1, 1119, 795.5)">
<g fill-opacity="0.09803921729326248" fill-rule="nonzero" stroke="none" fill="#000000">
  <path d="M 1 11 L 1 196 C 1 201.52284749830793 5.477152501692067 206 11 206 L 239 206 C 244.52284749830793 206 249 201.52284749830793 249 196 L 249 11 C 249 5.477152501692067 244.52284749830793 1 239 1 L 11 1 C 5.477152501692067 1 1 5.477152501692067 1 11 z"/>
</g>
</g>
<g transform="matrix(1, 0, 0, 1, 1118, 794.5)">
<g fill-opacity="1" fill-rule="nonzero" stroke="none" fill="#ffffff">
  <path d="M 1 11 L 1 196 C 1 201.52284749830793 5.477152501692067 206 11 206 L 239 206 C 244.52284749830793 206 249 201.52284749830793 249 196 L 249 11 C 249 5.477152501692067 244.52284749830793 1 239 1 L 11 1 C 5.477152501692067 1 1 5.477152501692067 1 11 z"/>
</g>
</g>
<g stroke="url(#gradient-0)">
<g transform="matrix(1, 0, 0, 1, 1118, 794.5)">
<g fill-opacity="1" fill-rule="nonzero" stroke="none" fill="url(#gradient-0)">
  <path d="M 1 11 L 1 196 C 1 201.52284749830793 5.477152501692067 206 11 206 L 239 206 C 244.52284749830793 206 249 201.52284749830793 249 196 L 249 11 C 249 5.477152501692067 244.52284749830793 1 239 1 L 11 1 C 5.477152501692067 1 1 5.477152501692067 1 11 z"/>
</g>
</g>
<g transform="matrix(1, 0, 0, 1, 1118, 794.5)">
<g stroke-width="2" stroke-linecap="butt" fill="none" stroke-opacity="1" stroke="#000000">
  <path d="M 1 11 L 1 196 C 1 201.52284749830793 5.477152501692067 206 11 206 L 239 206 C 244.52284749830793 206 249 201.52284749830793 249 196 L 249 11 C 249 5.477152501692067 244.52284749830793 1 239 1 L 11 1 C 5.477152501692067 1 1 5.477152501692067 1 11 z"/>
</g>
</g>
<g transform="matrix(1, 0, 0, 1, 1128, 847.75)">
<clipPath id="clip11">
  <path d="M -1128 -847.75 L -1128 780.25 L 644 780.25 L 644 -847.75 z"/>
</clipPath>
<g clip-path="url(#clip11)">
<text fill-opacity="1" font-style="normal" font-family="Helvetica" font-weight="normal" stroke="none" fill="#000000" font-size="6.666666507720947px" x="0" y="0"><tspan x="0" dy="13.0">org.spp.cocome.behavior.generator</tspan>
</text>
</g>
</g>
<g transform="matrix(1, 0, 0, 1, 1136, 931.25)">
<clipPath id="clip12">
  <path d="M -1136 -931.25 L -1136 696.75 L 636 696.75 L 636 -931.25 z"/>
</clipPath>
<g clip-path="url(#clip12)">
<text fill-opacity="1" font-style="normal" font-family="Helvetica" font-weight="bold" stroke="none" fill="#000000" font-size="6.666666507720947px" x="0" y="0"><tspan x="0" dy="13.0">BehaviorStructureGenerator</tspan>
</text>
</g>
</g>
<g transform="matrix(1, 0, 0, 1, 1115, 861.1666641235352)">
<g fill-opacity="1" fill-rule="nonzero" stroke="none" fill="#000000">
  <path d="M 0.5 0.5 L 2.5 0.5 L 2.5 2.5 L 0.5 2.5 L 0.5 0.5 z"/>
</g>
</g>
<g transform="matrix(1, 0, 0, 1, 1115, 861.1666641235352)">
<g stroke-linejoin="round" stroke-linecap="butt" fill="none" stroke-opacity="1" stroke="#000000">
  <path d="M 0.5 0.5 L 2.5 0.5 L 2.5 2.5 L 0.5 2.5 L 0.5 0.5 z"/>
</g>
</g>
<g transform="matrix(1, 0, 0, 1, 1115, 826.3333339691162)">
<g fill-opacity="1" fill-rule="nonzero" stroke="none" fill="#000000">
  <path d="M 0.5 0.5 L 2.5 0.5 L 2.5 2.5 L 0.5 2.5 L 0.5 0.5 z"/>
</g>
</g>
<g transform="matrix(1, 0, 0, 1, 1115, 826.3333339691162)">
<g stroke-linejoin="round" stroke-linecap="butt" fill="none" stroke-opacity="1" stroke="#000000">
  <path d="M 0.5 0.5 L 2.5 0.5 L 2.5 2.5 L 0.5 2.5 L 0.5 0.5 z"/>
</g>
</g>
<g transform="matrix(1, 0, 0, 1, 1115, 896)">
<g fill-opacity="1" fill-rule="nonzero" stroke="none" fill="#000000">
  <path d="M 0.5 0.5 L 2.5 0.5 L 2.5 2.5 L 0.5 2.5 L 0.5 0.5 z"/>
</g>
</g>
<g transform="matrix(1, 0, 0, 1, 1115, 896)">
<g stroke-linejoin="round" stroke-linecap="butt" fill="none" stroke-opacity="1" stroke="#000000">
  <path d="M 0.5 0.5 L 2.5 0.5 L 2.5 2.5 L 0.5 2.5 L 0.5 0.5 z"/>
</g>
</g>
<g transform="matrix(1, 0, 0, 1, 1115, 930.8333282470703)">
<g fill-opacity="1" fill-rule="nonzero" stroke="none" fill="#000000">
  <path d="M 0.5 0.5 L 2.5 0.5 L 2.5 2.5 L 0.5 2.5 L 0.5 0.5 z"/>
</g>
</g>
<g transform="matrix(1, 0, 0, 1, 1115, 930.8333282470703)">
<g stroke-linejoin="round" stroke-linecap="butt" fill="none" stroke-opacity="1" stroke="#000000">
  <path d="M 0.5 0.5 L 2.5 0.5 L 2.5 2.5 L 0.5 2.5 L 0.5 0.5 z"/>
</g>
</g>
<g transform="matrix(1, 0, 0, 1, 1114, 965.6666717529297)">
<g fill-opacity="1" fill-rule="nonzero" stroke="none" fill="#000000">
  <path d="M 0.5 0.5 L 3.5 0.5 L 3.5 3.5 L 0.5 3.5 L 0.5 0.5 z"/>
</g>
</g>
<g transform="matrix(1, 0, 0, 1, 1114, 965.6666717529297)">
<g stroke-linejoin="round" stroke-linecap="butt" fill="none" stroke-opacity="1" stroke="#000000">
  <path d="M 0.5 0.5 L 3.5 0.5 L 3.5 3.5 L 0.5 3.5 L 0.5 0.5 z"/>
</g>
</g>
<g transform="matrix(1, 0, 0, 1, 1368, 943.0714263916016)">
<g fill-opacity="1" fill-rule="nonzero" stroke="none" fill="#000000">
  <path d="M 0.5 0.5 L 2.5 0.5 L 2.5 2.5 L 0.5 2.5 L 0.5 0.5 z"/>
</g>
</g>
<g transform="matrix(1, 0, 0, 1, 1368, 943.0714263916016)">
<g stroke-linejoin="round" stroke-linecap="butt" fill="none" stroke-opacity="1" stroke="#000000">
  <path d="M 0.5 0.5 L 2.5 0.5 L 2.5 2.5 L 0.5 2.5 L 0.5 0.5 z"/>
</g>
</g>
<g transform="matrix(1, 0, 0, 1, 1368, 878.6428604125977)">
<g fill-opacity="1" fill-rule="nonzero" stroke="none" fill="#000000">
  <path d="M 0.5 0.5 L 3.5 0.5 L 3.5 3.5 L 0.5 3.5 L 0.5 0.5 z"/>
</g>
</g>
<g transform="matrix(1, 0, 0, 1, 1368, 878.6428604125977)">
<g stroke-linejoin="round" stroke-linecap="butt" fill="none" stroke-opacity="1" stroke="#000000">
  <path d="M 0.5 0.5 L 3.5 0.5 L 3.5 3.5 L 0.5 3.5 L 0.5 0.5 z"/>
</g>
</g>
<g transform="matrix(1, 0, 0, 1, 1368, 908.3571395874023)">
<g fill-opacity="1" fill-rule="nonzero" stroke="none" fill="#000000">
  <path d="M 0.5 0.5 L 8.5 0.5 L 8.5 8.5 L 0.5 8.5 L 0.5 0.5 z"/>
</g>
</g>
<g transform="matrix(1, 0, 0, 1, 1368, 908.3571395874023)">
<g stroke-linejoin="round" stroke-linecap="butt" fill="none" stroke-opacity="1" stroke="#000000">
  <path d="M 0.5 0.5 L 8.5 0.5 L 8.5 8.5 L 0.5 8.5 L 0.5 0.5 z"/>
</g>
</g>
<g transform="matrix(1, 0, 0, 1, 1368, 820.2142848968506)">
<g fill-opacity="1" fill-rule="nonzero" stroke="none" fill="#000000">
  <path d="M 0.5 0.5 L 3.5 0.5 L 3.5 3.5 L 0.5 3.5 L 0.5 0.5 z"/>
</g>
</g>
<g transform="matrix(1, 0, 0, 1, 1368, 820.2142848968506)">
<g stroke-linejoin="round" stroke-linecap="butt" fill="none" stroke-opacity="1" stroke="#000000">
  <path d="M 0.5 0.5 L 3.5 0.5 L 3.5 3.5 L 0.5 3.5 L 0.5 0.5 z"/>
</g>
</g>
<g transform="matrix(1, 0, 0, 1, 1368, 849.9285697937012)">
<g fill-opacity="1" fill-rule="nonzero" stroke="none" fill="#000000">
  <path d="M 0.5 0.5 L 2.5 0.5 L 2.5 2.5 L 0.5 2.5 L 0.5 0.5 z"/>
</g>
</g>
<g transform="matrix(1, 0, 0, 1, 1368, 849.9285697937012)">
<g stroke-linejoin="round" stroke-linecap="butt" fill="none" stroke-opacity="1" stroke="#000000">
  <path d="M 0.5 0.5 L 2.5 0.5 L 2.5 2.5 L 0.5 2.5 L 0.5 0.5 z"/>
</g>
</g>
<g transform="matrix(1, 0, 0, 1, 1368, 971.7857208251953)">
<g fill-opacity="1" fill-rule="nonzero" stroke="none" fill="#000000">
  <path d="M 0.5 0.5 L 3.5 0.5 L 3.5 3.5 L 0.5 3.5 L 0.5 0.5 z"/>
</g>
</g>
<g transform="matrix(1, 0, 0, 1, 1368, 971.7857208251953)">
<g stroke-linejoin="round" stroke-linecap="butt" fill="none" stroke-opacity="1" stroke="#000000">
  <path d="M 0.5 0.5 L 3.5 0.5 L 3.5 3.5 L 0.5 3.5 L 0.5 0.5 z"/>
</g>
</g>
<g transform="matrix(1, 0, 0, 1, 765, 101.33333587646484)">
<g fill-opacity="0.09803921729326248" fill-rule="nonzero" stroke="none" fill="#000000">
  <path d="M 1 11 L 1 72 C 1 77.52284749830794 5.477152501692067 82 11 82 L 209 82 C 214.52284749830793 82 219 77.52284749830794 219 72 L 219 11 C 219 5.477152501692067 214.52284749830793 1 209 1 L 11 1 C 5.477152501692067 1 1 5.477152501692067 1 11 z"/>
</g>
</g>
<g transform="matrix(1, 0, 0, 1, 764, 100.33333587646484)">
<g fill-opacity="0.09803921729326248" fill-rule="nonzero" stroke="none" fill="#000000">
  <path d="M 1 11 L 1 72 C 1 77.52284749830794 5.477152501692067 82 11 82 L 209 82 C 214.52284749830793 82 219 77.52284749830794 219 72 L 219 11 C 219 5.477152501692067 214.52284749830793 1 209 1 L 11 1 C 5.477152501692067 1 1 5.477152501692067 1 11 z"/>
</g>
</g>
<g transform="matrix(1, 0, 0, 1, 763, 99.33333587646484)">
<g fill-opacity="0.09803921729326248" fill-rule="nonzero" stroke="none" fill="#000000">
  <path d="M 1 11 L 1 72 C 1 77.52284749830794 5.477152501692067 82 11 82 L 209 82 C 214.52284749830793 82 219 77.52284749830794 219 72 L 219 11 C 219 5.477152501692067 214.52284749830793 1 209 1 L 11 1 C 5.477152501692067 1 1 5.477152501692067 1 11 z"/>
</g>
</g>
<g transform="matrix(1, 0, 0, 1, 762, 98.33333587646484)">
<g fill-opacity="0.09803921729326248" fill-rule="nonzero" stroke="none" fill="#000000">
  <path d="M 1 11 L 1 72 C 1 77.52284749830794 5.477152501692067 82 11 82 L 209 82 C 214.52284749830793 82 219 77.52284749830794 219 72 L 219 11 C 219 5.477152501692067 214.52284749830793 1 209 1 L 11 1 C 5.477152501692067 1 1 5.477152501692067 1 11 z"/>
</g>
</g>
<g transform="matrix(1, 0, 0, 1, 761, 97.33333587646484)">
<g fill-opacity="1" fill-rule="nonzero" stroke="none" fill="#ffffff">
  <path d="M 1 11 L 1 72 C 1 77.52284749830794 5.477152501692067 82 11 82 L 209 82 C 214.52284749830793 82 219 77.52284749830794 219 72 L 219 11 C 219 5.477152501692067 214.52284749830793 1 209 1 L 11 1 C 5.477152501692067 1 1 5.477152501692067 1 11 z"/>
</g>
</g>
<defs>
  <linearGradient id="gradient-1" gradientUnits="objectBoundingBox" gradientTransform="rotate(0.0)" >
    <stop offset="0" stop-color="#ffffff" opacity-stop="1.0" />
    <stop offset="1" stop-color="#0000ff" opacity-stop="1.0" />
  </linearGradient>
</defs>
<g stroke="url(#gradient-1)">
<g transform="matrix(1, 0, 0, 1, 761, 97.33333587646484)">
<g fill-opacity="1" fill-rule="nonzero" stroke="none" fill="url(#gradient-1)">
  <path d="M 1 11 L 1 72 C 1 77.52284749830794 5.477152501692067 82 11 82 L 209 82 C 214.52284749830793 82 219 77.52284749830794 219 72 L 219 11 C 219 5.477152501692067 214.52284749830793 1 209 1 L 11 1 C 5.477152501692067 1 1 5.477152501692067 1 11 z"/>
</g>
</g>
<g transform="matrix(1, 0, 0, 1, 761, 97.33333587646484)">
<g stroke-width="2" stroke-linecap="butt" fill="none" stroke-opacity="1" stroke="#000000">
  <path d="M 1 11 L 1 72 C 1 77.52284749830794 5.477152501692067 82 11 82 L 209 82 C 214.52284749830793 82 219 77.52284749830794 219 72 L 219 11 C 219 5.477152501692067 214.52284749830793 1 209 1 L 11 1 C 5.477152501692067 1 1 5.477152501692067 1 11 z"/>
</g>
</g>
<g transform="matrix(1, 0, 0, 1, 771, 119.58333587646484)">
<clipPath id="clip13">
  <path d="M -771 -119.58333587646484 L -771 1508.4166641235352 L 1001 1508.4166641235352 L 1001 -119.58333587646484 z"/>
</clipPath>
<g clip-path="url(#clip13)">
<text fill-opacity="1" font-style="normal" font-family="Helvetica" font-weight="normal" stroke="none" fill="#000000" font-size="6.666666507720947px" x="0" y="0"><tspan x="0" dy="13.0">org.eclipse.emf.ecore.resource</tspan>
</text>
</g>
</g>
<g transform="matrix(1, 0, 0, 1, 836.5, 141.08333587646484)">
<clipPath id="clip14">
  <path d="M -836.5 -141.08333587646484 L -836.5 1486.9166641235352 L 935.5 1486.9166641235352 L 935.5 -141.08333587646484 z"/>
</clipPath>
<g clip-path="url(#clip14)">
<text fill-opacity="1" font-style="normal" font-family="Helvetica" font-weight="bold" stroke="none" fill="#000000" font-size="6.666666507720947px" x="0" y="0"><tspan x="0" dy="13.0">Resource</tspan>
</text>
</g>
</g>
<g transform="matrix(1, 0, 0, 1, 758, 137.33333587646484)">
<g fill-opacity="1" fill-rule="nonzero" stroke="none" fill="#000000">
  <path d="M 0.5 0.5 L 2.5 0.5 L 2.5 2.5 L 0.5 2.5 L 0.5 0.5 z"/>
</g>
</g>
<g transform="matrix(1, 0, 0, 1, 758, 137.33333587646484)">
<g stroke-linejoin="round" stroke-linecap="butt" fill="none" stroke-opacity="1" stroke="#000000">
  <path d="M 0.5 0.5 L 2.5 0.5 L 2.5 2.5 L 0.5 2.5 L 0.5 0.5 z"/>
</g>
</g>
<g transform="matrix(1, 0, 0, 1, 765, 367.3333435058594)">
<g fill-opacity="0.09803921729326248" fill-rule="nonzero" stroke="none" fill="#000000">
  <path d="M 1 11 L 1 72 C 1 77.52284749830794 5.477152501692067 82 11 82 L 193 82 C 198.52284749830793 82 203 77.52284749830794 203 72 L 203 11 C 203 5.477152501692067 198.52284749830793 1 193 1 L 11 1 C 5.477152501692067 1 1 5.477152501692067 1 11 z"/>
</g>
</g>
<g transform="matrix(1, 0, 0, 1, 764, 366.3333435058594)">
<g fill-opacity="0.09803921729326248" fill-rule="nonzero" stroke="none" fill="#000000">
  <path d="M 1 11 L 1 72 C 1 77.52284749830794 5.477152501692067 82 11 82 L 193 82 C 198.52284749830793 82 203 77.52284749830794 203 72 L 203 11 C 203 5.477152501692067 198.52284749830793 1 193 1 L 11 1 C 5.477152501692067 1 1 5.477152501692067 1 11 z"/>
</g>
</g>
<g transform="matrix(1, 0, 0, 1, 763, 365.3333435058594)">
<g fill-opacity="0.09803921729326248" fill-rule="nonzero" stroke="none" fill="#000000">
  <path d="M 1 11 L 1 72 C 1 77.52284749830794 5.477152501692067 82 11 82 L 193 82 C 198.52284749830793 82 203 77.52284749830794 203 72 L 203 11 C 203 5.477152501692067 198.52284749830793 1 193 1 L 11 1 C 5.477152501692067 1 1 5.477152501692067 1 11 z"/>
</g>
</g>
<g transform="matrix(1, 0, 0, 1, 762, 364.3333435058594)">
<g fill-opacity="0.09803921729326248" fill-rule="nonzero" stroke="none" fill="#000000">
  <path d="M 1 11 L 1 72 C 1 77.52284749830794 5.477152501692067 82 11 82 L 193 82 C 198.52284749830793 82 203 77.52284749830794 203 72 L 203 11 C 203 5.477152501692067 198.52284749830793 1 193 1 L 11 1 C 5.477152501692067 1 1 5.477152501692067 1 11 z"/>
</g>
</g>
<g transform="matrix(1, 0, 0, 1, 761, 363.3333435058594)">
<g fill-opacity="1" fill-rule="nonzero" stroke="none" fill="#ffffff">
  <path d="M 1 11 L 1 72 C 1 77.52284749830794 5.477152501692067 82 11 82 L 193 82 C 198.52284749830793 82 203 77.52284749830794 203 72 L 203 11 C 203 5.477152501692067 198.52284749830793 1 193 1 L 11 1 C 5.477152501692067 1 1 5.477152501692067 1 11 z"/>
</g>
</g>
<g stroke="url(#gradient-1)">
<g transform="matrix(1, 0, 0, 1, 761, 363.3333435058594)">
<g fill-opacity="1" fill-rule="nonzero" stroke="none" fill="url(#gradient-1)">
  <path d="M 1 11 L 1 72 C 1 77.52284749830794 5.477152501692067 82 11 82 L 193 82 C 198.52284749830793 82 203 77.52284749830794 203 72 L 203 11 C 203 5.477152501692067 198.52284749830793 1 193 1 L 11 1 C 5.477152501692067 1 1 5.477152501692067 1 11 z"/>
</g>
</g>
<g transform="matrix(1, 0, 0, 1, 761, 363.3333435058594)">
<g stroke-width="2" stroke-linecap="butt" fill="none" stroke-opacity="1" stroke="#000000">
  <path d="M 1 11 L 1 72 C 1 77.52284749830794 5.477152501692067 82 11 82 L 193 82 C 198.52284749830793 82 203 77.52284749830794 203 72 L 203 11 C 203 5.477152501692067 198.52284749830793 1 193 1 L 11 1 C 5.477152501692067 1 1 5.477152501692067 1 11 z"/>
</g>
</g>
<g transform="matrix(1, 0, 0, 1, 771, 385.5833435058594)">
<clipPath id="clip15">
  <path d="M -771 -385.5833435058594 L -771 1242.4166564941406 L 1001 1242.4166564941406 L 1001 -385.5833435058594 z"/>
</clipPath>
<g clip-path="url(#clip15)">
<text fill-opacity="1" font-style="normal" font-family="Helvetica" font-weight="normal" stroke="none" fill="#000000" font-size="6.666666507720947px" x="0" y="0"><tspan x="0" dy="13.0">com.google.common.collect</tspan>
</text>
</g>
</g>
<g transform="matrix(1, 0, 0, 1, 830, 407.0833435058594)">
<clipPath id="clip16">
  <path d="M -830 -407.0833435058594 L -830 1220.9166564941406 L 942 1220.9166564941406 L 942 -407.0833435058594 z"/>
</clipPath>
<g clip-path="url(#clip16)">
<text fill-opacity="1" font-style="normal" font-family="Helvetica" font-weight="bold" stroke="none" fill="#000000" font-size="6.666666507720947px" x="0" y="0"><tspan x="0" dy="13.0">Iterators</tspan>
</text>
</g>
</g>
<g transform="matrix(1, 0, 0, 1, 758, 403.3333435058594)">
<g fill-opacity="1" fill-rule="nonzero" stroke="none" fill="#000000">
  <path d="M 0.5 0.5 L 2.5 0.5 L 2.5 2.5 L 0.5 2.5 L 0.5 0.5 z"/>
</g>
</g>
<g transform="matrix(1, 0, 0, 1, 758, 403.3333435058594)">
<g stroke-linejoin="round" stroke-linecap="butt" fill="none" stroke-opacity="1" stroke="#000000">
  <path d="M 0.5 0.5 L 2.5 0.5 L 2.5 2.5 L 0.5 2.5 L 0.5 0.5 z"/>
</g>
</g>
<g transform="matrix(1, 0, 0, 1, 765, 234.3333282470703)">
<g fill-opacity="0.09803921729326248" fill-rule="nonzero" stroke="none" fill="#000000">
  <path d="M 1 11 L 1 72 C 1 77.52284749830794 5.477152501692067 82 11 82 L 185 82 C 190.52284749830793 82 195 77.52284749830794 195 72 L 195 11 C 195 5.477152501692067 190.52284749830793 1 185 1 L 11 1 C 5.477152501692067 1 1 5.477152501692067 1 11 z"/>
</g>
</g>
<g transform="matrix(1, 0, 0, 1, 764, 233.3333282470703)">
<g fill-opacity="0.09803921729326248" fill-rule="nonzero" stroke="none" fill="#000000">
  <path d="M 1 11 L 1 72 C 1 77.52284749830794 5.477152501692067 82 11 82 L 185 82 C 190.52284749830793 82 195 77.52284749830794 195 72 L 195 11 C 195 5.477152501692067 190.52284749830793 1 185 1 L 11 1 C 5.477152501692067 1 1 5.477152501692067 1 11 z"/>
</g>
</g>
<g transform="matrix(1, 0, 0, 1, 763, 232.3333282470703)">
<g fill-opacity="0.09803921729326248" fill-rule="nonzero" stroke="none" fill="#000000">
  <path d="M 1 11 L 1 72 C 1 77.52284749830794 5.477152501692067 82 11 82 L 185 82 C 190.52284749830793 82 195 77.52284749830794 195 72 L 195 11 C 195 5.477152501692067 190.52284749830793 1 185 1 L 11 1 C 5.477152501692067 1 1 5.477152501692067 1 11 z"/>
</g>
</g>
<g transform="matrix(1, 0, 0, 1, 762, 231.3333282470703)">
<g fill-opacity="0.09803921729326248" fill-rule="nonzero" stroke="none" fill="#000000">
  <path d="M 1 11 L 1 72 C 1 77.52284749830794 5.477152501692067 82 11 82 L 185 82 C 190.52284749830793 82 195 77.52284749830794 195 72 L 195 11 C 195 5.477152501692067 190.52284749830793 1 185 1 L 11 1 C 5.477152501692067 1 1 5.477152501692067 1 11 z"/>
</g>
</g>
<g transform="matrix(1, 0, 0, 1, 761, 230.3333282470703)">
<g fill-opacity="1" fill-rule="nonzero" stroke="none" fill="#ffffff">
  <path d="M 1 11 L 1 72 C 1 77.52284749830794 5.477152501692067 82 11 82 L 185 82 C 190.52284749830793 82 195 77.52284749830794 195 72 L 195 11 C 195 5.477152501692067 190.52284749830793 1 185 1 L 11 1 C 5.477152501692067 1 1 5.477152501692067 1 11 z"/>
</g>
</g>
<g stroke="url(#gradient-1)">
<g transform="matrix(1, 0, 0, 1, 761, 230.3333282470703)">
<g fill-opacity="1" fill-rule="nonzero" stroke="none" fill="url(#gradient-1)">
  <path d="M 1 11 L 1 72 C 1 77.52284749830794 5.477152501692067 82 11 82 L 185 82 C 190.52284749830793 82 195 77.52284749830794 195 72 L 195 11 C 195 5.477152501692067 190.52284749830793 1 185 1 L 11 1 C 5.477152501692067 1 1 5.477152501692067 1 11 z"/>
</g>
</g>
<g transform="matrix(1, 0, 0, 1, 761, 230.3333282470703)">
<g stroke-width="2" stroke-linecap="butt" fill="none" stroke-opacity="1" stroke="#000000">
  <path d="M 1 11 L 1 72 C 1 77.52284749830794 5.477152501692067 82 11 82 L 185 82 C 190.52284749830793 82 195 77.52284749830794 195 72 L 195 11 C 195 5.477152501692067 190.52284749830793 1 185 1 L 11 1 C 5.477152501692067 1 1 5.477152501692067 1 11 z"/>
</g>
</g>
<g transform="matrix(1, 0, 0, 1, 771, 252.5833282470703)">
<clipPath id="clip17">
  <path d="M -771 -252.5833282470703 L -771 1375.4166717529297 L 1001 1375.4166717529297 L 1001 -252.5833282470703 z"/>
</clipPath>
<g clip-path="url(#clip17)">
<text fill-opacity="1" font-style="normal" font-family="Helvetica" font-weight="normal" stroke="none" fill="#000000" font-size="6.666666507720947px" x="0" y="0"><tspan x="0" dy="13.0">org.eclipse.xtext.generator</tspan>
</text>
</g>
</g>
<g transform="matrix(1, 0, 0, 1, 789, 274.0833282470703)">
<clipPath id="clip18">
  <path d="M -789 -274.0833282470703 L -789 1353.9166717529297 L 983 1353.9166717529297 L 983 -274.0833282470703 z"/>
</clipPath>
<g clip-path="url(#clip18)">
<text fill-opacity="1" font-style="normal" font-family="Helvetica" font-weight="bold" stroke="none" fill="#000000" font-size="6.666666507720947px" x="0" y="0"><tspan x="0" dy="13.0">IFileSystemAccess</tspan>
</text>
</g>
</g>
<g transform="matrix(1, 0, 0, 1, 758, 270.3333282470703)">
<g fill-opacity="1" fill-rule="nonzero" stroke="none" fill="#000000">
  <path d="M 0.5 0.5 L 2.5 0.5 L 2.5 2.5 L 0.5 2.5 L 0.5 0.5 z"/>
</g>
</g>
<g transform="matrix(1, 0, 0, 1, 758, 270.3333282470703)">
<g stroke-linejoin="round" stroke-linecap="butt" fill="none" stroke-opacity="1" stroke="#000000">
  <path d="M 0.5 0.5 L 2.5 0.5 L 2.5 2.5 L 0.5 2.5 L 0.5 0.5 z"/>
</g>
</g>
<g transform="matrix(1, 0, 0, 1, 765, 500.3333435058594)">
<g fill-opacity="0.09803921729326248" fill-rule="nonzero" stroke="none" fill="#000000">
  <path d="M 1 11 L 1 72 C 1 77.52284749830794 5.477152501692067 82 11 82 L 181 82 C 186.52284749830793 82 191 77.52284749830794 191 72 L 191 11 C 191 5.477152501692067 186.52284749830793 1 181 1 L 11 1 C 5.477152501692067 1 1 5.477152501692067 1 11 z"/>
</g>
</g>
<g transform="matrix(1, 0, 0, 1, 764, 499.3333435058594)">
<g fill-opacity="0.09803921729326248" fill-rule="nonzero" stroke="none" fill="#000000">
  <path d="M 1 11 L 1 72 C 1 77.52284749830794 5.477152501692067 82 11 82 L 181 82 C 186.52284749830793 82 191 77.52284749830794 191 72 L 191 11 C 191 5.477152501692067 186.52284749830793 1 181 1 L 11 1 C 5.477152501692067 1 1 5.477152501692067 1 11 z"/>
</g>
</g>
<g transform="matrix(1, 0, 0, 1, 763, 498.3333435058594)">
<g fill-opacity="0.09803921729326248" fill-rule="nonzero" stroke="none" fill="#000000">
  <path d="M 1 11 L 1 72 C 1 77.52284749830794 5.477152501692067 82 11 82 L 181 82 C 186.52284749830793 82 191 77.52284749830794 191 72 L 191 11 C 191 5.477152501692067 186.52284749830793 1 181 1 L 11 1 C 5.477152501692067 1 1 5.477152501692067 1 11 z"/>
</g>
</g>
<g transform="matrix(1, 0, 0, 1, 762, 497.3333435058594)">
<g fill-opacity="0.09803921729326248" fill-rule="nonzero" stroke="none" fill="#000000">
  <path d="M 1 11 L 1 72 C 1 77.52284749830794 5.477152501692067 82 11 82 L 181 82 C 186.52284749830793 82 191 77.52284749830794 191 72 L 191 11 C 191 5.477152501692067 186.52284749830793 1 181 1 L 11 1 C 5.477152501692067 1 1 5.477152501692067 1 11 z"/>
</g>
</g>
<g transform="matrix(1, 0, 0, 1, 761, 496.3333435058594)">
<g fill-opacity="1" fill-rule="nonzero" stroke="none" fill="#ffffff">
  <path d="M 1 11 L 1 72 C 1 77.52284749830794 5.477152501692067 82 11 82 L 181 82 C 186.52284749830793 82 191 77.52284749830794 191 72 L 191 11 C 191 5.477152501692067 186.52284749830793 1 181 1 L 11 1 C 5.477152501692067 1 1 5.477152501692067 1 11 z"/>
</g>
</g>
<g stroke="url(#gradient-1)">
<g transform="matrix(1, 0, 0, 1, 761, 496.3333435058594)">
<g fill-opacity="1" fill-rule="nonzero" stroke="none" fill="url(#gradient-1)">
  <path d="M 1 11 L 1 72 C 1 77.52284749830794 5.477152501692067 82 11 82 L 181 82 C 186.52284749830793 82 191 77.52284749830794 191 72 L 191 11 C 191 5.477152501692067 186.52284749830793 1 181 1 L 11 1 C 5.477152501692067 1 1 5.477152501692067 1 11 z"/>
</g>
</g>
<g transform="matrix(1, 0, 0, 1, 761, 496.3333435058594)">
<g stroke-width="2" stroke-linecap="butt" fill="none" stroke-opacity="1" stroke="#000000">
  <path d="M 1 11 L 1 72 C 1 77.52284749830794 5.477152501692067 82 11 82 L 181 82 C 186.52284749830793 82 191 77.52284749830794 191 72 L 191 11 C 191 5.477152501692067 186.52284749830793 1 181 1 L 11 1 C 5.477152501692067 1 1 5.477152501692067 1 11 z"/>
</g>
</g>
<g transform="matrix(1, 0, 0, 1, 771, 518.5833435058594)">
<clipPath id="clip19">
  <path d="M -771 -518.5833435058594 L -771 1109.4166564941406 L 1001 1109.4166564941406 L 1001 -518.5833435058594 z"/>
</clipPath>
<g clip-path="url(#clip19)">
<text fill-opacity="1" font-style="normal" font-family="Helvetica" font-weight="normal" stroke="none" fill="#000000" font-size="6.666666507720947px" x="0" y="0"><tspan x="0" dy="13.0">org.eclipse.xtext.xbase.lib</tspan>
</text>
</g>
</g>
<g transform="matrix(1, 0, 0, 1, 787.5, 540.0833435058594)">
<clipPath id="clip20">
  <path d="M -787.5 -540.0833435058594 L -787.5 1087.9166564941406 L 984.5 1087.9166564941406 L 984.5 -540.0833435058594 z"/>
</clipPath>
<g clip-path="url(#clip20)">
<text fill-opacity="1" font-style="normal" font-family="Helvetica" font-weight="bold" stroke="none" fill="#000000" font-size="6.666666507720947px" x="0" y="0"><tspan x="0" dy="13.0">IteratorExtensions</tspan>
</text>
</g>
</g>
<g transform="matrix(1, 0, 0, 1, 758, 536.3333435058594)">
<g fill-opacity="1" fill-rule="nonzero" stroke="none" fill="#000000">
  <path d="M 0.5 0.5 L 2.5 0.5 L 2.5 2.5 L 0.5 2.5 L 0.5 0.5 z"/>
</g>
</g>
<g transform="matrix(1, 0, 0, 1, 758, 536.3333435058594)">
<g stroke-linejoin="round" stroke-linecap="butt" fill="none" stroke-opacity="1" stroke="#000000">
  <path d="M 0.5 0.5 L 2.5 0.5 L 2.5 2.5 L 0.5 2.5 L 0.5 0.5 z"/>
</g>
</g>
<g transform="matrix(1, 0, 0, 1, 765, 633.3333129882812)">
<g fill-opacity="0.09803921729326248" fill-rule="nonzero" stroke="none" fill="#000000">
  <path d="M 1 11 L 1 72 C 1 77.52284749830794 5.477152501692067 82 11 82 L 149 82 C 154.52284749830793 82 159 77.52284749830794 159 72 L 159 11 C 159 5.477152501692067 154.52284749830793 1 149 1 L 11 1 C 5.477152501692067 1 1 5.477152501692067 1 11 z"/>
</g>
</g>
<g transform="matrix(1, 0, 0, 1, 764, 632.3333129882812)">
<g fill-opacity="0.09803921729326248" fill-rule="nonzero" stroke="none" fill="#000000">
  <path d="M 1 11 L 1 72 C 1 77.52284749830794 5.477152501692067 82 11 82 L 149 82 C 154.52284749830793 82 159 77.52284749830794 159 72 L 159 11 C 159 5.477152501692067 154.52284749830793 1 149 1 L 11 1 C 5.477152501692067 1 1 5.477152501692067 1 11 z"/>
</g>
</g>
<g transform="matrix(1, 0, 0, 1, 763, 631.3333129882812)">
<g fill-opacity="0.09803921729326248" fill-rule="nonzero" stroke="none" fill="#000000">
  <path d="M 1 11 L 1 72 C 1 77.52284749830794 5.477152501692067 82 11 82 L 149 82 C 154.52284749830793 82 159 77.52284749830794 159 72 L 159 11 C 159 5.477152501692067 154.52284749830793 1 149 1 L 11 1 C 5.477152501692067 1 1 5.477152501692067 1 11 z"/>
</g>
</g>
<g transform="matrix(1, 0, 0, 1, 762, 630.3333129882812)">
<g fill-opacity="0.09803921729326248" fill-rule="nonzero" stroke="none" fill="#000000">
  <path d="M 1 11 L 1 72 C 1 77.52284749830794 5.477152501692067 82 11 82 L 149 82 C 154.52284749830793 82 159 77.52284749830794 159 72 L 159 11 C 159 5.477152501692067 154.52284749830793 1 149 1 L 11 1 C 5.477152501692067 1 1 5.477152501692067 1 11 z"/>
</g>
</g>
<g transform="matrix(1, 0, 0, 1, 761, 629.3333129882812)">
<g fill-opacity="1" fill-rule="nonzero" stroke="none" fill="#ffffff">
  <path d="M 1 11 L 1 72 C 1 77.52284749830794 5.477152501692067 82 11 82 L 149 82 C 154.52284749830793 82 159 77.52284749830794 159 72 L 159 11 C 159 5.477152501692067 154.52284749830793 1 149 1 L 11 1 C 5.477152501692067 1 1 5.477152501692067 1 11 z"/>
</g>
</g>
<g stroke="url(#gradient-1)">
<g transform="matrix(1, 0, 0, 1, 761, 629.3333129882812)">
<g fill-opacity="1" fill-rule="nonzero" stroke="none" fill="url(#gradient-1)">
  <path d="M 1 11 L 1 72 C 1 77.52284749830794 5.477152501692067 82 11 82 L 149 82 C 154.52284749830793 82 159 77.52284749830794 159 72 L 159 11 C 159 5.477152501692067 154.52284749830793 1 149 1 L 11 1 C 5.477152501692067 1 1 5.477152501692067 1 11 z"/>
</g>
</g>
<g transform="matrix(1, 0, 0, 1, 761, 629.3333129882812)">
<g stroke-width="2" stroke-linecap="butt" fill="none" stroke-opacity="1" stroke="#000000">
  <path d="M 1 11 L 1 72 C 1 77.52284749830794 5.477152501692067 82 11 82 L 149 82 C 154.52284749830793 82 159 77.52284749830794 159 72 L 159 11 C 159 5.477152501692067 154.52284749830793 1 149 1 L 11 1 C 5.477152501692067 1 1 5.477152501692067 1 11 z"/>
</g>
</g>
<g transform="matrix(1, 0, 0, 1, 771, 651.5833129882812)">
<clipPath id="clip21">
  <path d="M -771 -651.5833129882812 L -771 976.4166870117188 L 1001 976.4166870117188 L 1001 -651.5833129882812 z"/>
</clipPath>
<g clip-path="url(#clip21)">
<text fill-opacity="1" font-style="normal" font-family="Helvetica" font-weight="normal" stroke="none" fill="#000000" font-size="6.666666507720947px" x="0" y="0"><tspan x="0" dy="13.0">org.eclipse.emf.ecore</tspan>
</text>
</g>
</g>
<g transform="matrix(1, 0, 0, 1, 812, 673.0833129882812)">
<clipPath id="clip22">
  <path d="M -812 -673.0833129882812 L -812 954.9166870117188 L 960 954.9166870117188 L 960 -673.0833129882812 z"/>
</clipPath>
<g clip-path="url(#clip22)">
<text fill-opacity="1" font-style="normal" font-family="Helvetica" font-weight="bold" stroke="none" fill="#000000" font-size="6.666666507720947px" x="0" y="0"><tspan x="0" dy="13.0">EObject</tspan>
</text>
</g>
</g>
<g transform="matrix(1, 0, 0, 1, 758, 669.3333129882812)">
<g fill-opacity="1" fill-rule="nonzero" stroke="none" fill="#000000">
  <path d="M 0.5 0.5 L 2.5 0.5 L 2.5 2.5 L 0.5 2.5 L 0.5 0.5 z"/>
</g>
</g>
<g transform="matrix(1, 0, 0, 1, 758, 669.3333129882812)">
<g stroke-linejoin="round" stroke-linecap="butt" fill="none" stroke-opacity="1" stroke="#000000">
  <path d="M 0.5 0.5 L 2.5 0.5 L 2.5 2.5 L 0.5 2.5 L 0.5 0.5 z"/>
</g>
</g>
<g transform="matrix(1, 0, 0, 1, 1585, 1122)">
<g fill-opacity="0.09803921729326248" fill-rule="nonzero" stroke="none" fill="#000000">
  <path d="M 1 11 L 1 159 C 1 164.52284749830793 5.477152501692067 169 11 169 L 163 169 C 168.52284749830793 169 173 164.52284749830793 173 159 L 173 11 C 173 5.477152501692067 168.52284749830793 1 163 1 L 11 1 C 5.477152501692067 1 1 5.477152501692067 1 11 z"/>
</g>
</g>
<g transform="matrix(1, 0, 0, 1, 1584, 1121)">
<g fill-opacity="0.09803921729326248" fill-rule="nonzero" stroke="none" fill="#000000">
  <path d="M 1 11 L 1 159 C 1 164.52284749830793 5.477152501692067 169 11 169 L 163 169 C 168.52284749830793 169 173 164.52284749830793 173 159 L 173 11 C 173 5.477152501692067 168.52284749830793 1 163 1 L 11 1 C 5.477152501692067 1 1 5.477152501692067 1 11 z"/>
</g>
</g>
<g transform="matrix(1, 0, 0, 1, 1583, 1120)">
<g fill-opacity="0.09803921729326248" fill-rule="nonzero" stroke="none" fill="#000000">
  <path d="M 1 11 L 1 159 C 1 164.52284749830793 5.477152501692067 169 11 169 L 163 169 C 168.52284749830793 169 173 164.52284749830793 173 159 L 173 11 C 173 5.477152501692067 168.52284749830793 1 163 1 L 11 1 C 5.477152501692067 1 1 5.477152501692067 1 11 z"/>
</g>
</g>
<g transform="matrix(1, 0, 0, 1, 1582, 1119)">
<g fill-opacity="0.09803921729326248" fill-rule="nonzero" stroke="none" fill="#000000">
  <path d="M 1 11 L 1 159 C 1 164.52284749830793 5.477152501692067 169 11 169 L 163 169 C 168.52284749830793 169 173 164.52284749830793 173 159 L 173 11 C 173 5.477152501692067 168.52284749830793 1 163 1 L 11 1 C 5.477152501692067 1 1 5.477152501692067 1 11 z"/>
</g>
</g>
<g transform="matrix(1, 0, 0, 1, 1581, 1118)">
<g fill-opacity="1" fill-rule="nonzero" stroke="none" fill="#ffffff">
  <path d="M 1 11 L 1 159 C 1 164.52284749830793 5.477152501692067 169 11 169 L 163 169 C 168.52284749830793 169 173 164.52284749830793 173 159 L 173 11 C 173 5.477152501692067 168.52284749830793 1 163 1 L 11 1 C 5.477152501692067 1 1 5.477152501692067 1 11 z"/>
</g>
</g>
<g stroke="url(#gradient-1)">
<g transform="matrix(1, 0, 0, 1, 1581, 1118)">
<g fill-opacity="1" fill-rule="nonzero" stroke="none" fill="url(#gradient-1)">
  <path d="M 1 11 L 1 159 C 1 164.52284749830793 5.477152501692067 169 11 169 L 163 169 C 168.52284749830793 169 173 164.52284749830793 173 159 L 173 11 C 173 5.477152501692067 168.52284749830793 1 163 1 L 11 1 C 5.477152501692067 1 1 5.477152501692067 1 11 z"/>
</g>
</g>
<g transform="matrix(1, 0, 0, 1, 1581, 1118)">
<g stroke-width="2" stroke-linecap="butt" fill="none" stroke-opacity="1" stroke="#000000">
  <path d="M 1 11 L 1 159 C 1 164.52284749830793 5.477152501692067 169 11 169 L 163 169 C 168.52284749830793 169 173 164.52284749830793 173 159 L 173 11 C 173 5.477152501692067 168.52284749830793 1 163 1 L 11 1 C 5.477152501692067 1 1 5.477152501692067 1 11 z"/>
</g>
</g>
<g transform="matrix(1, 0, 0, 1, 1598, 1162)">
<clipPath id="clip23">
  <path d="M -1598 -1162 L -1598 466 L 174 466 L 174 -1162 z"/>
</clipPath>
<g clip-path="url(#clip23)">
<text fill-opacity="1" font-style="normal" font-family="Helvetica" font-weight="normal" stroke="none" fill="#000000" font-size="6.666666507720947px" x="0" y="0"><tspan x="0" dy="13.0">org.eclipse.xtend2.lib</tspan>
</text>
</g>
</g>
<g transform="matrix(1, 0, 0, 1, 1591, 1227)">
<clipPath id="clip24">
  <path d="M -1591 -1227 L -1591 401 L 181 401 L 181 -1227 z"/>
</clipPath>
<g clip-path="url(#clip24)">
<text fill-opacity="1" font-style="normal" font-family="Helvetica" font-weight="bold" stroke="none" fill="#000000" font-size="6.666666507720947px" x="0" y="0"><tspan x="0" dy="13.0">StringConcatenation</tspan>
</text>
</g>
</g>
<g transform="matrix(1, 0, 0, 1, 1572, 1251)">
<g fill-opacity="1" fill-rule="nonzero" stroke="none" fill="#000000">
  <path d="M 0.5 0.5 L 8.5 0.5 L 8.5 8.5 L 0.5 8.5 L 0.5 0.5 z"/>
</g>
</g>
<g transform="matrix(1, 0, 0, 1, 1572, 1251)">
<g stroke-linejoin="round" stroke-linecap="butt" fill="none" stroke-opacity="1" stroke="#000000">
  <path d="M 0.5 0.5 L 8.5 0.5 L 8.5 8.5 L 0.5 8.5 L 0.5 0.5 z"/>
</g>
</g>
<g transform="matrix(1, 0, 0, 1, 1577, 1219)">
<g fill-opacity="1" fill-rule="nonzero" stroke="none" fill="#000000">
  <path d="M 0.5 0.5 L 3.5 0.5 L 3.5 3.5 L 0.5 3.5 L 0.5 0.5 z"/>
</g>
</g>
<g transform="matrix(1, 0, 0, 1, 1577, 1219)">
<g stroke-linejoin="round" stroke-linecap="butt" fill="none" stroke-opacity="1" stroke="#000000">
  <path d="M 0.5 0.5 L 3.5 0.5 L 3.5 3.5 L 0.5 3.5 L 0.5 0.5 z"/>
</g>
</g>
<g transform="matrix(1, 0, 0, 1, 1573, 1183)">
<g fill-opacity="1" fill-rule="nonzero" stroke="none" fill="#000000">
  <path d="M 0.5 0.5 L 7.5 0.5 L 7.5 7.5 L 0.5 7.5 L 0.5 0.5 z"/>
</g>
</g>
<g transform="matrix(1, 0, 0, 1, 1573, 1183)">
<g stroke-linejoin="round" stroke-linecap="butt" fill="none" stroke-opacity="1" stroke="#000000">
  <path d="M 0.5 0.5 L 7.5 0.5 L 7.5 7.5 L 0.5 7.5 L 0.5 0.5 z"/>
</g>
</g>
<g transform="matrix(1, 0, 0, 1, 1572, 1146)">
<g fill-opacity="1" fill-rule="nonzero" stroke="none" fill="#000000">
  <path d="M 0.5 0.5 L 8.5 0.5 L 8.5 8.5 L 0.5 8.5 L 0.5 0.5 z"/>
</g>
</g>
<g transform="matrix(1, 0, 0, 1, 1572, 1146)">
<g stroke-linejoin="round" stroke-linecap="butt" fill="none" stroke-opacity="1" stroke="#000000">
  <path d="M 0.5 0.5 L 8.5 0.5 L 8.5 8.5 L 0.5 8.5 L 0.5 0.5 z"/>
</g>
</g>
<g transform="matrix(1, 0, 0, 1, 1580, 1498)">
<g fill-opacity="0.09803921729326248" fill-rule="nonzero" stroke="none" fill="#000000">
  <path d="M 1 11 L 1 119 C 1 124.52284749830794 5.477152501692067 129 11 129 L 181 129 C 186.52284749830793 129 191 124.52284749830794 191 119 L 191 11 C 191 5.477152501692067 186.52284749830793 1 181 1 L 11 1 C 5.477152501692067 1 1 5.477152501692067 1 11 z"/>
</g>
</g>
<g transform="matrix(1, 0, 0, 1, 1579, 1497)">
<g fill-opacity="0.09803921729326248" fill-rule="nonzero" stroke="none" fill="#000000">
  <path d="M 1 11 L 1 119 C 1 124.52284749830794 5.477152501692067 129 11 129 L 181 129 C 186.52284749830793 129 191 124.52284749830794 191 119 L 191 11 C 191 5.477152501692067 186.52284749830793 1 181 1 L 11 1 C 5.477152501692067 1 1 5.477152501692067 1 11 z"/>
</g>
</g>
<g transform="matrix(1, 0, 0, 1, 1578, 1496)">
<g fill-opacity="0.09803921729326248" fill-rule="nonzero" stroke="none" fill="#000000">
  <path d="M 1 11 L 1 119 C 1 124.52284749830794 5.477152501692067 129 11 129 L 181 129 C 186.52284749830793 129 191 124.52284749830794 191 119 L 191 11 C 191 5.477152501692067 186.52284749830793 1 181 1 L 11 1 C 5.477152501692067 1 1 5.477152501692067 1 11 z"/>
</g>
</g>
<g transform="matrix(1, 0, 0, 1, 1577, 1495)">
<g fill-opacity="0.09803921729326248" fill-rule="nonzero" stroke="none" fill="#000000">
  <path d="M 1 11 L 1 119 C 1 124.52284749830794 5.477152501692067 129 11 129 L 181 129 C 186.52284749830793 129 191 124.52284749830794 191 119 L 191 11 C 191 5.477152501692067 186.52284749830793 1 181 1 L 11 1 C 5.477152501692067 1 1 5.477152501692067 1 11 z"/>
</g>
</g>
<g transform="matrix(1, 0, 0, 1, 1576, 1494)">
<g fill-opacity="1" fill-rule="nonzero" stroke="none" fill="#ffffff">
  <path d="M 1 11 L 1 119 C 1 124.52284749830794 5.477152501692067 129 11 129 L 181 129 C 186.52284749830793 129 191 124.52284749830794 191 119 L 191 11 C 191 5.477152501692067 186.52284749830793 1 181 1 L 11 1 C 5.477152501692067 1 1 5.477152501692067 1 11 z"/>
</g>
</g>
<g stroke="url(#gradient-1)">
<g transform="matrix(1, 0, 0, 1, 1576, 1494)">
<g fill-opacity="1" fill-rule="nonzero" stroke="none" fill="url(#gradient-1)">
  <path d="M 1 11 L 1 119 C 1 124.52284749830794 5.477152501692067 129 11 129 L 181 129 C 186.52284749830793 129 191 124.52284749830794 191 119 L 191 11 C 191 5.477152501692067 186.52284749830793 1 181 1 L 11 1 C 5.477152501692067 1 1 5.477152501692067 1 11 z"/>
</g>
</g>
<g transform="matrix(1, 0, 0, 1, 1576, 1494)">
<g stroke-width="2" stroke-linecap="butt" fill="none" stroke-opacity="1" stroke="#000000">
  <path d="M 1 11 L 1 119 C 1 124.52284749830794 5.477152501692067 129 11 129 L 181 129 C 186.52284749830793 129 191 124.52284749830794 191 119 L 191 11 C 191 5.477152501692067 186.52284749830793 1 181 1 L 11 1 C 5.477152501692067 1 1 5.477152501692067 1 11 z"/>
</g>
</g>
<g transform="matrix(1, 0, 0, 1, 1586, 1528)">
<clipPath id="clip25">
  <path d="M -1586 -1528 L -1586 100 L 186 100 L 186 -1528 z"/>
</clipPath>
<g clip-path="url(#clip25)">
<text fill-opacity="1" font-style="normal" font-family="Helvetica" font-weight="normal" stroke="none" fill="#000000" font-size="6.666666507720947px" x="0" y="0"><tspan x="0" dy="13.0">org.eclipse.xtext.xbase.lib</tspan>
</text>
</g>
</g>
<g transform="matrix(1, 0, 0, 1, 1617.5, 1573)">
<clipPath id="clip26">
  <path d="M -1617.5 -1573 L -1617.5 55 L 154.5 55 L 154.5 -1573 z"/>
</clipPath>
<g clip-path="url(#clip26)">
<text fill-opacity="1" font-style="normal" font-family="Helvetica" font-weight="bold" stroke="none" fill="#000000" font-size="6.666666507720947px" x="0" y="0"><tspan x="0" dy="13.0">ListExtensions</tspan>
</text>
</g>
</g>
<g transform="matrix(1, 0, 0, 1, 1573, 1591)">
<g fill-opacity="1" fill-rule="nonzero" stroke="none" fill="#000000">
  <path d="M 0.5 0.5 L 2.5 0.5 L 2.5 2.5 L 0.5 2.5 L 0.5 0.5 z"/>
</g>
</g>
<g transform="matrix(1, 0, 0, 1, 1573, 1591)">
<g stroke-linejoin="round" stroke-linecap="butt" fill="none" stroke-opacity="1" stroke="#000000">
  <path d="M 0.5 0.5 L 2.5 0.5 L 2.5 2.5 L 0.5 2.5 L 0.5 0.5 z"/>
</g>
</g>
<g transform="matrix(1, 0, 0, 1, 1573, 1558)">
<g fill-opacity="1" fill-rule="nonzero" stroke="none" fill="#000000">
  <path d="M 0.5 0.5 L 2.5 0.5 L 2.5 2.5 L 0.5 2.5 L 0.5 0.5 z"/>
</g>
</g>
<g transform="matrix(1, 0, 0, 1, 1573, 1558)">
<g stroke-linejoin="round" stroke-linecap="butt" fill="none" stroke-opacity="1" stroke="#000000">
  <path d="M 0.5 0.5 L 2.5 0.5 L 2.5 2.5 L 0.5 2.5 L 0.5 0.5 z"/>
</g>
</g>
<g transform="matrix(1, 0, 0, 1, 1572, 1524)">
<g fill-opacity="1" fill-rule="nonzero" stroke="none" fill="#000000">
  <path d="M 0.5 0.5 L 3.5 0.5 L 3.5 3.5 L 0.5 3.5 L 0.5 0.5 z"/>
</g>
</g>
<g transform="matrix(1, 0, 0, 1, 1572, 1524)">
<g stroke-linejoin="round" stroke-linecap="butt" fill="none" stroke-opacity="1" stroke="#000000">
  <path d="M 0.5 0.5 L 3.5 0.5 L 3.5 3.5 L 0.5 3.5 L 0.5 0.5 z"/>
</g>
</g>
<g transform="matrix(1, 0, 0, 1, 1580, 942)">
<g fill-opacity="0.09803921729326248" fill-rule="nonzero" stroke="none" fill="#000000">
  <path d="M 1 11 L 1 119 C 1 124.52284749830794 5.477152501692067 129 11 129 L 181 129 C 186.52284749830793 129 191 124.52284749830794 191 119 L 191 11 C 191 5.477152501692067 186.52284749830793 1 181 1 L 11 1 C 5.477152501692067 1 1 5.477152501692067 1 11 z"/>
</g>
</g>
<g transform="matrix(1, 0, 0, 1, 1579, 941)">
<g fill-opacity="0.09803921729326248" fill-rule="nonzero" stroke="none" fill="#000000">
  <path d="M 1 11 L 1 119 C 1 124.52284749830794 5.477152501692067 129 11 129 L 181 129 C 186.52284749830793 129 191 124.52284749830794 191 119 L 191 11 C 191 5.477152501692067 186.52284749830793 1 181 1 L 11 1 C 5.477152501692067 1 1 5.477152501692067 1 11 z"/>
</g>
</g>
<g transform="matrix(1, 0, 0, 1, 1578, 940)">
<g fill-opacity="0.09803921729326248" fill-rule="nonzero" stroke="none" fill="#000000">
  <path d="M 1 11 L 1 119 C 1 124.52284749830794 5.477152501692067 129 11 129 L 181 129 C 186.52284749830793 129 191 124.52284749830794 191 119 L 191 11 C 191 5.477152501692067 186.52284749830793 1 181 1 L 11 1 C 5.477152501692067 1 1 5.477152501692067 1 11 z"/>
</g>
</g>
<g transform="matrix(1, 0, 0, 1, 1577, 939)">
<g fill-opacity="0.09803921729326248" fill-rule="nonzero" stroke="none" fill="#000000">
  <path d="M 1 11 L 1 119 C 1 124.52284749830794 5.477152501692067 129 11 129 L 181 129 C 186.52284749830793 129 191 124.52284749830794 191 119 L 191 11 C 191 5.477152501692067 186.52284749830793 1 181 1 L 11 1 C 5.477152501692067 1 1 5.477152501692067 1 11 z"/>
</g>
</g>
<g transform="matrix(1, 0, 0, 1, 1576, 938)">
<g fill-opacity="1" fill-rule="nonzero" stroke="none" fill="#ffffff">
  <path d="M 1 11 L 1 119 C 1 124.52284749830794 5.477152501692067 129 11 129 L 181 129 C 186.52284749830793 129 191 124.52284749830794 191 119 L 191 11 C 191 5.477152501692067 186.52284749830793 1 181 1 L 11 1 C 5.477152501692067 1 1 5.477152501692067 1 11 z"/>
</g>
</g>
<g stroke="url(#gradient-1)">
<g transform="matrix(1, 0, 0, 1, 1576, 938)">
<g fill-opacity="1" fill-rule="nonzero" stroke="none" fill="url(#gradient-1)">
  <path d="M 1 11 L 1 119 C 1 124.52284749830794 5.477152501692067 129 11 129 L 181 129 C 186.52284749830793 129 191 124.52284749830794 191 119 L 191 11 C 191 5.477152501692067 186.52284749830793 1 181 1 L 11 1 C 5.477152501692067 1 1 5.477152501692067 1 11 z"/>
</g>
</g>
<g transform="matrix(1, 0, 0, 1, 1576, 938)">
<g stroke-width="2" stroke-linecap="butt" fill="none" stroke-opacity="1" stroke="#000000">
  <path d="M 1 11 L 1 119 C 1 124.52284749830794 5.477152501692067 129 11 129 L 181 129 C 186.52284749830793 129 191 124.52284749830794 191 119 L 191 11 C 191 5.477152501692067 186.52284749830793 1 181 1 L 11 1 C 5.477152501692067 1 1 5.477152501692067 1 11 z"/>
</g>
</g>
<g transform="matrix(1, 0, 0, 1, 1586, 972)">
<clipPath id="clip27">
  <path d="M -1586 -972 L -1586 656 L 186 656 L 186 -972 z"/>
</clipPath>
<g clip-path="url(#clip27)">
<text fill-opacity="1" font-style="normal" font-family="Helvetica" font-weight="normal" stroke="none" fill="#000000" font-size="6.666666507720947px" x="0" y="0"><tspan x="0" dy="13.0">org.eclipse.xtext.xbase.lib</tspan>
</text>
</g>
</g>
<g transform="matrix(1, 0, 0, 1, 1601.5, 1017)">
<clipPath id="clip28">
  <path d="M -1601.5 -1017 L -1601.5 611 L 170.5 611 L 170.5 -1017 z"/>
</clipPath>
<g clip-path="url(#clip28)">
<text fill-opacity="1" font-style="normal" font-family="Helvetica" font-weight="bold" stroke="none" fill="#000000" font-size="6.666666507720947px" x="0" y="0"><tspan x="0" dy="13.0">IterableExtensions</tspan>
</text>
</g>
</g>
<g transform="matrix(1, 0, 0, 1, 1573, 968)">
<g fill-opacity="1" fill-rule="nonzero" stroke="none" fill="#000000">
  <path d="M 0.5 0.5 L 2.5 0.5 L 2.5 2.5 L 0.5 2.5 L 0.5 0.5 z"/>
</g>
</g>
<g transform="matrix(1, 0, 0, 1, 1573, 968)">
<g stroke-linejoin="round" stroke-linecap="butt" fill="none" stroke-opacity="1" stroke="#000000">
  <path d="M 0.5 0.5 L 2.5 0.5 L 2.5 2.5 L 0.5 2.5 L 0.5 0.5 z"/>
</g>
</g>
<g transform="matrix(1, 0, 0, 1, 1573, 1035)">
<g fill-opacity="1" fill-rule="nonzero" stroke="none" fill="#000000">
  <path d="M 0.5 0.5 L 2.5 0.5 L 2.5 2.5 L 0.5 2.5 L 0.5 0.5 z"/>
</g>
</g>
<g transform="matrix(1, 0, 0, 1, 1573, 1035)">
<g stroke-linejoin="round" stroke-linecap="butt" fill="none" stroke-opacity="1" stroke="#000000">
  <path d="M 0.5 0.5 L 2.5 0.5 L 2.5 2.5 L 0.5 2.5 L 0.5 0.5 z"/>
</g>
</g>
<g transform="matrix(1, 0, 0, 1, 1572, 1001)">
<g fill-opacity="1" fill-rule="nonzero" stroke="none" fill="#000000">
  <path d="M 0.5 0.5 L 3.5 0.5 L 3.5 3.5 L 0.5 3.5 L 0.5 0.5 z"/>
</g>
</g>
<g transform="matrix(1, 0, 0, 1, 1572, 1001)">
<g stroke-linejoin="round" stroke-linecap="butt" fill="none" stroke-opacity="1" stroke="#000000">
  <path d="M 0.5 0.5 L 3.5 0.5 L 3.5 3.5 L 0.5 3.5 L 0.5 0.5 z"/>
</g>
</g>
<g transform="matrix(1, 0, 0, 1, 1580, 4)">
<g fill-opacity="0.09803921729326248" fill-rule="nonzero" stroke="none" fill="#000000">
  <path d="M 1 11 L 1 97 C 1 102.52284749830794 5.477152501692067 107 11 107 L 181 107 C 186.52284749830793 107 191 102.52284749830794 191 97 L 191 11 C 191 5.477152501692067 186.52284749830793 1 181 1 L 11 1 C 5.477152501692067 1 1 5.477152501692067 1 11 z"/>
</g>
</g>
<g transform="matrix(1, 0, 0, 1, 1579, 3)">
<g fill-opacity="0.09803921729326248" fill-rule="nonzero" stroke="none" fill="#000000">
  <path d="M 1 11 L 1 97 C 1 102.52284749830794 5.477152501692067 107 11 107 L 181 107 C 186.52284749830793 107 191 102.52284749830794 191 97 L 191 11 C 191 5.477152501692067 186.52284749830793 1 181 1 L 11 1 C 5.477152501692067 1 1 5.477152501692067 1 11 z"/>
</g>
</g>
<g transform="matrix(1, 0, 0, 1, 1578, 2)">
<g fill-opacity="0.09803921729326248" fill-rule="nonzero" stroke="none" fill="#000000">
  <path d="M 1 11 L 1 97 C 1 102.52284749830794 5.477152501692067 107 11 107 L 181 107 C 186.52284749830793 107 191 102.52284749830794 191 97 L 191 11 C 191 5.477152501692067 186.52284749830793 1 181 1 L 11 1 C 5.477152501692067 1 1 5.477152501692067 1 11 z"/>
</g>
</g>
<g transform="matrix(1, 0, 0, 1, 1577, 1)">
<g fill-opacity="0.09803921729326248" fill-rule="nonzero" stroke="none" fill="#000000">
  <path d="M 1 11 L 1 97 C 1 102.52284749830794 5.477152501692067 107 11 107 L 181 107 C 186.52284749830793 107 191 102.52284749830794 191 97 L 191 11 C 191 5.477152501692067 186.52284749830793 1 181 1 L 11 1 C 5.477152501692067 1 1 5.477152501692067 1 11 z"/>
</g>
</g>
<g transform="matrix(1, 0, 0, 1, 1576, 0)">
<g fill-opacity="1" fill-rule="nonzero" stroke="none" fill="#ffffff">
  <path d="M 1 11 L 1 97 C 1 102.52284749830794 5.477152501692067 107 11 107 L 181 107 C 186.52284749830793 107 191 102.52284749830794 191 97 L 191 11 C 191 5.477152501692067 186.52284749830793 1 181 1 L 11 1 C 5.477152501692067 1 1 5.477152501692067 1 11 z"/>
</g>
</g>
<g stroke="url(#gradient-1)">
<g transform="matrix(1, 0, 0, 1, 1576, 0)">
<g fill-opacity="1" fill-rule="nonzero" stroke="none" fill="url(#gradient-1)">
  <path d="M 1 11 L 1 97 C 1 102.52284749830794 5.477152501692067 107 11 107 L 181 107 C 186.52284749830793 107 191 102.52284749830794 191 97 L 191 11 C 191 5.477152501692067 186.52284749830793 1 181 1 L 11 1 C 5.477152501692067 1 1 5.477152501692067 1 11 z"/>
</g>
</g>
<g transform="matrix(1, 0, 0, 1, 1576, 0)">
<g stroke-width="2" stroke-linecap="butt" fill="none" stroke-opacity="1" stroke="#000000">
  <path d="M 1 11 L 1 97 C 1 102.52284749830794 5.477152501692067 107 11 107 L 181 107 C 186.52284749830793 107 191 102.52284749830794 191 97 L 191 11 C 191 5.477152501692067 186.52284749830793 1 181 1 L 11 1 C 5.477152501692067 1 1 5.477152501692067 1 11 z"/>
</g>
</g>
<g transform="matrix(1, 0, 0, 1, 1586, 28.5)">
<clipPath id="clip29">
  <path d="M -1586 -28.5 L -1586 1599.5 L 186 1599.5 L 186 -28.5 z"/>
</clipPath>
<g clip-path="url(#clip29)">
<text fill-opacity="1" font-style="normal" font-family="Helvetica" font-weight="normal" stroke="none" fill="#000000" font-size="6.666666507720947px" x="0" y="0"><tspan x="0" dy="13.0">com.google.common.base</tspan>
</text>
</g>
</g>
<g transform="matrix(1, 0, 0, 1, 1643.5, 62.5)">
<clipPath id="clip30">
  <path d="M -1643.5 -62.5 L -1643.5 1565.5 L 128.5 1565.5 L 128.5 -62.5 z"/>
</clipPath>
<g clip-path="url(#clip30)">
<text fill-opacity="1" font-style="normal" font-family="Helvetica" font-weight="bold" stroke="none" fill="#000000" font-size="6.666666507720947px" x="0" y="0"><tspan x="0" dy="13.0">Objects</tspan>
</text>
</g>
</g>
<g transform="matrix(1, 0, 0, 1, 1572, 33.33333206176758)">
<g fill-opacity="1" fill-rule="nonzero" stroke="none" fill="#000000">
  <path d="M 0.5 0.5 L 3.5 0.5 L 3.5 3.5 L 0.5 3.5 L 0.5 0.5 z"/>
</g>
</g>
<g transform="matrix(1, 0, 0, 1, 1572, 33.33333206176758)">
<g stroke-linejoin="round" stroke-linecap="butt" fill="none" stroke-opacity="1" stroke="#000000">
  <path d="M 0.5 0.5 L 3.5 0.5 L 3.5 3.5 L 0.5 3.5 L 0.5 0.5 z"/>
</g>
</g>
<g transform="matrix(1, 0, 0, 1, 1572, 70.66666412353516)">
<g fill-opacity="1" fill-rule="nonzero" stroke="none" fill="#000000">
  <path d="M 0.5 0.5 L 3.5 0.5 L 3.5 3.5 L 0.5 3.5 L 0.5 0.5 z"/>
</g>
</g>
<g transform="matrix(1, 0, 0, 1, 1572, 70.66666412353516)">
<g stroke-linejoin="round" stroke-linecap="butt" fill="none" stroke-opacity="1" stroke="#000000">
  <path d="M 0.5 0.5 L 3.5 0.5 L 3.5 3.5 L 0.5 3.5 L 0.5 0.5 z"/>
</g>
</g>
<g transform="matrix(1, 0, 0, 1, 1580, 1342)">
<g fill-opacity="0.09803921729326248" fill-rule="nonzero" stroke="none" fill="#000000">
  <path d="M 1 11 L 1 95 C 1 100.52284749830794 5.477152501692067 105 11 105 L 181 105 C 186.52284749830793 105 191 100.52284749830794 191 95 L 191 11 C 191 5.477152501692067 186.52284749830793 1 181 1 L 11 1 C 5.477152501692067 1 1 5.477152501692067 1 11 z"/>
</g>
</g>
<g transform="matrix(1, 0, 0, 1, 1579, 1341)">
<g fill-opacity="0.09803921729326248" fill-rule="nonzero" stroke="none" fill="#000000">
  <path d="M 1 11 L 1 95 C 1 100.52284749830794 5.477152501692067 105 11 105 L 181 105 C 186.52284749830793 105 191 100.52284749830794 191 95 L 191 11 C 191 5.477152501692067 186.52284749830793 1 181 1 L 11 1 C 5.477152501692067 1 1 5.477152501692067 1 11 z"/>
</g>
</g>
<g transform="matrix(1, 0, 0, 1, 1578, 1340)">
<g fill-opacity="0.09803921729326248" fill-rule="nonzero" stroke="none" fill="#000000">
  <path d="M 1 11 L 1 95 C 1 100.52284749830794 5.477152501692067 105 11 105 L 181 105 C 186.52284749830793 105 191 100.52284749830794 191 95 L 191 11 C 191 5.477152501692067 186.52284749830793 1 181 1 L 11 1 C 5.477152501692067 1 1 5.477152501692067 1 11 z"/>
</g>
</g>
<g transform="matrix(1, 0, 0, 1, 1577, 1339)">
<g fill-opacity="0.09803921729326248" fill-rule="nonzero" stroke="none" fill="#000000">
  <path d="M 1 11 L 1 95 C 1 100.52284749830794 5.477152501692067 105 11 105 L 181 105 C 186.52284749830793 105 191 100.52284749830794 191 95 L 191 11 C 191 5.477152501692067 186.52284749830793 1 181 1 L 11 1 C 5.477152501692067 1 1 5.477152501692067 1 11 z"/>
</g>
</g>
<g transform="matrix(1, 0, 0, 1, 1576, 1338)">
<g fill-opacity="1" fill-rule="nonzero" stroke="none" fill="#ffffff">
  <path d="M 1 11 L 1 95 C 1 100.52284749830794 5.477152501692067 105 11 105 L 181 105 C 186.52284749830793 105 191 100.52284749830794 191 95 L 191 11 C 191 5.477152501692067 186.52284749830793 1 181 1 L 11 1 C 5.477152501692067 1 1 5.477152501692067 1 11 z"/>
</g>
</g>
<g stroke="url(#gradient-1)">
<g transform="matrix(1, 0, 0, 1, 1576, 1338)">
<g fill-opacity="1" fill-rule="nonzero" stroke="none" fill="url(#gradient-1)">
  <path d="M 1 11 L 1 95 C 1 100.52284749830794 5.477152501692067 105 11 105 L 181 105 C 186.52284749830793 105 191 100.52284749830794 191 95 L 191 11 C 191 5.477152501692067 186.52284749830793 1 181 1 L 11 1 C 5.477152501692067 1 1 5.477152501692067 1 11 z"/>
</g>
</g>
<g transform="matrix(1, 0, 0, 1, 1576, 1338)">
<g stroke-width="2" stroke-linecap="butt" fill="none" stroke-opacity="1" stroke="#000000">
  <path d="M 1 11 L 1 95 C 1 100.52284749830794 5.477152501692067 105 11 105 L 181 105 C 186.52284749830793 105 191 100.52284749830794 191 95 L 191 11 C 191 5.477152501692067 186.52284749830793 1 181 1 L 11 1 C 5.477152501692067 1 1 5.477152501692067 1 11 z"/>
</g>
</g>
<g transform="matrix(1, 0, 0, 1, 1586, 1366)">
<clipPath id="clip31">
  <path d="M -1586 -1366 L -1586 262 L 186 262 L 186 -1366 z"/>
</clipPath>
<g clip-path="url(#clip31)">
<text fill-opacity="1" font-style="normal" font-family="Helvetica" font-weight="normal" stroke="none" fill="#000000" font-size="6.666666507720947px" x="0" y="0"><tspan x="0" dy="13.0">org.eclipse.xtext.xbase.lib</tspan>
</text>
</g>
</g>
<g transform="matrix(1, 0, 0, 1, 1631, 1399)">
<clipPath id="clip32">
  <path d="M -1631 -1399 L -1631 229 L 141 229 L 141 -1399 z"/>
</clipPath>
<g clip-path="url(#clip32)">
<text fill-opacity="1" font-style="normal" font-family="Helvetica" font-weight="bold" stroke="none" fill="#000000" font-size="6.666666507720947px" x="0" y="0"><tspan x="0" dy="13.0">Exceptions</tspan>
</text>
</g>
</g>
<g transform="matrix(1, 0, 0, 1, 1573, 1407.6666641235352)">
<g fill-opacity="1" fill-rule="nonzero" stroke="none" fill="#000000">
  <path d="M 0.5 0.5 L 2.5 0.5 L 2.5 2.5 L 0.5 2.5 L 0.5 0.5 z"/>
</g>
</g>
<g transform="matrix(1, 0, 0, 1, 1573, 1407.6666641235352)">
<g stroke-linejoin="round" stroke-linecap="butt" fill="none" stroke-opacity="1" stroke="#000000">
  <path d="M 0.5 0.5 L 2.5 0.5 L 2.5 2.5 L 0.5 2.5 L 0.5 0.5 z"/>
</g>
</g>
<g transform="matrix(1, 0, 0, 1, 1573, 1371.3333320617676)">
<g fill-opacity="1" fill-rule="nonzero" stroke="none" fill="#000000">
  <path d="M 0.5 0.5 L 2.5 0.5 L 2.5 2.5 L 0.5 2.5 L 0.5 0.5 z"/>
</g>
</g>
<g transform="matrix(1, 0, 0, 1, 1573, 1371.3333320617676)">
<g stroke-linejoin="round" stroke-linecap="butt" fill="none" stroke-opacity="1" stroke="#000000">
  <path d="M 0.5 0.5 L 2.5 0.5 L 2.5 2.5 L 0.5 2.5 L 0.5 0.5 z"/>
</g>
</g>
<g transform="matrix(1, 0, 0, 1, 1580, 809)">
<g fill-opacity="0.09803921729326248" fill-rule="nonzero" stroke="none" fill="#000000">
  <path d="M 1 11 L 1 72 C 1 77.52284749830794 5.477152501692067 82 11 82 L 181 82 C 186.52284749830793 82 191 77.52284749830794 191 72 L 191 11 C 191 5.477152501692067 186.52284749830793 1 181 1 L 11 1 C 5.477152501692067 1 1 5.477152501692067 1 11 z"/>
</g>
</g>
<g transform="matrix(1, 0, 0, 1, 1579, 808)">
<g fill-opacity="0.09803921729326248" fill-rule="nonzero" stroke="none" fill="#000000">
  <path d="M 1 11 L 1 72 C 1 77.52284749830794 5.477152501692067 82 11 82 L 181 82 C 186.52284749830793 82 191 77.52284749830794 191 72 L 191 11 C 191 5.477152501692067 186.52284749830793 1 181 1 L 11 1 C 5.477152501692067 1 1 5.477152501692067 1 11 z"/>
</g>
</g>
<g transform="matrix(1, 0, 0, 1, 1578, 807)">
<g fill-opacity="0.09803921729326248" fill-rule="nonzero" stroke="none" fill="#000000">
  <path d="M 1 11 L 1 72 C 1 77.52284749830794 5.477152501692067 82 11 82 L 181 82 C 186.52284749830793 82 191 77.52284749830794 191 72 L 191 11 C 191 5.477152501692067 186.52284749830793 1 181 1 L 11 1 C 5.477152501692067 1 1 5.477152501692067 1 11 z"/>
</g>
</g>
<g transform="matrix(1, 0, 0, 1, 1577, 806)">
<g fill-opacity="0.09803921729326248" fill-rule="nonzero" stroke="none" fill="#000000">
  <path d="M 1 11 L 1 72 C 1 77.52284749830794 5.477152501692067 82 11 82 L 181 82 C 186.52284749830793 82 191 77.52284749830794 191 72 L 191 11 C 191 5.477152501692067 186.52284749830793 1 181 1 L 11 1 C 5.477152501692067 1 1 5.477152501692067 1 11 z"/>
</g>
</g>
<g transform="matrix(1, 0, 0, 1, 1576, 805)">
<g fill-opacity="1" fill-rule="nonzero" stroke="none" fill="#ffffff">
  <path d="M 1 11 L 1 72 C 1 77.52284749830794 5.477152501692067 82 11 82 L 181 82 C 186.52284749830793 82 191 77.52284749830794 191 72 L 191 11 C 191 5.477152501692067 186.52284749830793 1 181 1 L 11 1 C 5.477152501692067 1 1 5.477152501692067 1 11 z"/>
</g>
</g>
<g stroke="url(#gradient-1)">
<g transform="matrix(1, 0, 0, 1, 1576, 805)">
<g fill-opacity="1" fill-rule="nonzero" stroke="none" fill="url(#gradient-1)">
  <path d="M 1 11 L 1 72 C 1 77.52284749830794 5.477152501692067 82 11 82 L 181 82 C 186.52284749830793 82 191 77.52284749830794 191 72 L 191 11 C 191 5.477152501692067 186.52284749830793 1 181 1 L 11 1 C 5.477152501692067 1 1 5.477152501692067 1 11 z"/>
</g>
</g>
<g transform="matrix(1, 0, 0, 1, 1576, 805)">
<g stroke-width="2" stroke-linecap="butt" fill="none" stroke-opacity="1" stroke="#000000">
  <path d="M 1 11 L 1 72 C 1 77.52284749830794 5.477152501692067 82 11 82 L 181 82 C 186.52284749830793 82 191 77.52284749830794 191 72 L 191 11 C 191 5.477152501692067 186.52284749830793 1 181 1 L 11 1 C 5.477152501692067 1 1 5.477152501692067 1 11 z"/>
</g>
</g>
<g transform="matrix(1, 0, 0, 1, 1586, 827.25)">
<clipPath id="clip33">
  <path d="M -1586 -827.25 L -1586 800.75 L 186 800.75 L 186 -827.25 z"/>
</clipPath>
<g clip-path="url(#clip33)">
<text fill-opacity="1" font-style="normal" font-family="Helvetica" font-weight="normal" stroke="none" fill="#000000" font-size="6.666666507720947px" x="0" y="0"><tspan x="0" dy="13.0">org.eclipse.xtext.xbase.lib</tspan>
</text>
</g>
</g>
<g transform="matrix(1, 0, 0, 1, 1608, 848.75)">
<clipPath id="clip34">
  <path d="M -1608 -848.75 L -1608 779.25 L 164 779.25 L 164 -848.75 z"/>
</clipPath>
<g clip-path="url(#clip34)">
<text fill-opacity="1" font-style="normal" font-family="Helvetica" font-weight="bold" stroke="none" fill="#000000" font-size="6.666666507720947px" x="0" y="0"><tspan x="0" dy="13.0">StringExtensions</tspan>
</text>
</g>
</g>
<g transform="matrix(1, 0, 0, 1, 1573, 845)">
<g fill-opacity="1" fill-rule="nonzero" stroke="none" fill="#000000">
  <path d="M 0.5 0.5 L 2.5 0.5 L 2.5 2.5 L 0.5 2.5 L 0.5 0.5 z"/>
</g>
</g>
<g transform="matrix(1, 0, 0, 1, 1573, 845)">
<g stroke-linejoin="round" stroke-linecap="butt" fill="none" stroke-opacity="1" stroke="#000000">
  <path d="M 0.5 0.5 L 2.5 0.5 L 2.5 2.5 L 0.5 2.5 L 0.5 0.5 z"/>
</g>
</g>
<g transform="matrix(1, 0, 0, 1, -12, -12)">
<g stroke-linecap="butt" fill="none" stroke-opacity="1" stroke="#000000">
  <path d="M 648 605.8333129882812 L 709 605.8333129882812 L 709 815.8333129882812 L 772 815.8333129882812"/>
</g>
</g>
<g transform="matrix(1, 0, 0, 1, -12, -12)">
<g stroke-width="2" stroke-linecap="butt" fill="none" stroke-opacity="1" stroke="#000000">
  <path d="M 266 1046.5 L 391 1046.5"/>
</g>
</g>
<g transform="matrix(1, 0, 0, 1, -12, -12)">
<g stroke-width="2" stroke-linecap="butt" fill="none" stroke-opacity="1" stroke="#000000">
  <path d="M 266 1075.5 L 356 1075.5 L 356 1146.5 L 769 1146.5"/>
</g>
</g>
<g transform="matrix(1, 0, 0, 1, -12, -12)">
<g stroke-linecap="butt" fill="none" stroke-opacity="1" stroke="#000000">
  <path d="M 648 1046 L 709 1046 L 709 1085 L 770 1085"/>
</g>
</g>
<g transform="matrix(1, 0, 0, 1, -12, -12)">
<g stroke-linecap="butt" fill="none" stroke-opacity="1" stroke="#000000">
  <path d="M 648 633.8333129882812 L 684 633.8333129882812 L 684 892.3333129882812 L 1066 892.3333129882812 L 1066 874.6666870117188 L 1127 874.6666870117188"/>
</g>
</g>
<g transform="matrix(1, 0, 0, 1, -12, -12)">
<g stroke-linecap="butt" fill="none" stroke-opacity="1" stroke="#000000">
  <path d="M 1028 815.8333129882812 L 1066 815.8333129882812 L 1066 839.8333129882812 L 1127 839.8333129882812"/>
</g>
</g>
<g transform="matrix(1, 0, 0, 1, -12, -12)">
<g stroke-linecap="butt" fill="none" stroke-opacity="1" stroke="#000000">
  <path d="M 265 1018 L 356 1018 L 356 918.3333129882812 L 1066 918.3333129882812 L 1066 909.5 L 1127 909.5"/>
</g>
</g>
<g transform="matrix(1, 0, 0, 1, -12, -12)">
<g stroke-linecap="butt" fill="none" stroke-opacity="1" stroke="#000000">
  <path d="M 648 1013 L 684 1013 L 684 944.3333129882812 L 1127 944.3333129882812"/>
</g>
</g>
<g transform="matrix(1, 0, 0, 1, -12, -12)">
<g stroke-width="2" stroke-linecap="butt" fill="none" stroke-opacity="1" stroke="#000000">
  <path d="M 1027 1054.1666259765625 L 1066 1054.1666259765625 L 1066 979.6666870117188 L 1126 979.6666870117188"/>
</g>
</g>
<g transform="matrix(1, 0, 0, 1, -12, -12)">
<g stroke-linecap="butt" fill="none" stroke-opacity="1" stroke="#000000">
  <path d="M 648 465.8333435058594 L 684 465.8333435058594 L 684 150.8333282470703 L 770 150.8333282470703"/>
</g>
</g>
<g transform="matrix(1, 0, 0, 1, -12, -12)">
<g stroke-linecap="butt" fill="none" stroke-opacity="1" stroke="#000000">
  <path d="M 648 521.8333129882812 L 734 521.8333129882812 L 734 416.8333435058594 L 770 416.8333435058594"/>
</g>
</g>
<g transform="matrix(1, 0, 0, 1, -12, -12)">
<g stroke-linecap="butt" fill="none" stroke-opacity="1" stroke="#000000">
  <path d="M 648 493.8333435058594 L 709 493.8333435058594 L 709 283.8333435058594 L 770 283.8333435058594"/>
</g>
</g>
<g transform="matrix(1, 0, 0, 1, -12, -12)">
<g stroke-linecap="butt" fill="none" stroke-opacity="1" stroke="#000000">
  <path d="M 648 549.8333129882812 L 770 549.8333129882812"/>
</g>
</g>
<g transform="matrix(1, 0, 0, 1, -12, -12)">
<g stroke-linecap="butt" fill="none" stroke-opacity="1" stroke="#000000">
  <path d="M 648 577.8333129882812 L 734 577.8333129882812 L 734 682.8333129882812 L 770 682.8333129882812"/>
</g>
</g>
<g transform="matrix(1, 0, 0, 1, -12, -12)">
<g stroke-width="7" stroke-linecap="butt" fill="none" stroke-opacity="1" stroke="#000000">
  <path d="M 271 1107 L 331 1107 L 331 1267.5 L 1584 1267.5"/>
</g>
</g>
<g transform="matrix(1, 0, 0, 1, -12, -12)">
<g stroke-width="2" stroke-linecap="butt" fill="none" stroke-opacity="1" stroke="#000000">
  <path d="M 649 1079.5 L 684 1079.5 L 684 1241.5 L 1499 1241.5 L 1499 1233 L 1589 1233"/>
</g>
</g>
<g transform="matrix(1, 0, 0, 1, -12, -12)">
<g stroke-width="6" stroke-linecap="butt" fill="none" stroke-opacity="1" stroke="#000000">
  <path d="M 1031 1116.5 L 1449 1116.5 L 1449 1199 L 1585 1199"/>
</g>
</g>
<g transform="matrix(1, 0, 0, 1, -12, -12)">
<g stroke-width="7" stroke-linecap="butt" fill="none" stroke-opacity="1" stroke="#000000">
  <path d="M 1389 924.8571166992188 L 1499 924.8571166992188 L 1499 1162.5 L 1584 1162.5"/>
</g>
</g>
<g transform="matrix(1, 0, 0, 1, -12, -12)">
<g stroke-linecap="butt" fill="none" stroke-opacity="1" stroke="#000000">
  <path d="M 265 1138 L 306 1138 L 306 1604.5 L 1585 1604.5"/>
</g>
</g>
<g transform="matrix(1, 0, 0, 1, -12, -12)">
<g stroke-linecap="butt" fill="none" stroke-opacity="1" stroke="#000000">
  <path d="M 1026 1178.3333740234375 L 1066 1178.3333740234375 L 1066 1578.5 L 1424 1578.5 L 1424 1571.5 L 1585 1571.5"/>
</g>
</g>
<g transform="matrix(1, 0, 0, 1, -12, -12)">
<g stroke-width="2" stroke-linecap="butt" fill="none" stroke-opacity="1" stroke="#000000">
  <path d="M 1384 985.7857055664062 L 1424 985.7857055664062 L 1424 1538 L 1584 1538"/>
</g>
</g>
<g transform="matrix(1, 0, 0, 1, -12, -12)">
<g stroke-linecap="butt" fill="none" stroke-opacity="1" stroke="#000000">
  <path d="M 265 990 L 331 990 L 331 73.33333587646484 L 1549 73.33333587646484 L 1549 981.5 L 1585 981.5"/>
</g>
</g>
<g transform="matrix(1, 0, 0, 1, -12, -12)">
<g stroke-linecap="butt" fill="none" stroke-opacity="1" stroke="#000000">
  <path d="M 1026 1084.3333740234375 L 1091 1084.3333740234375 L 1091 1048.5 L 1585 1048.5"/>
</g>
</g>
<g transform="matrix(1, 0, 0, 1, -12, -12)">
<g stroke-width="2" stroke-linecap="butt" fill="none" stroke-opacity="1" stroke="#000000">
  <path d="M 1384 892.6428833007812 L 1524 892.6428833007812 L 1524 1015 L 1584 1015"/>
</g>
</g>
<g transform="matrix(1, 0, 0, 1, -12, -12)">
<g stroke-width="2" stroke-linecap="butt" fill="none" stroke-opacity="1" stroke="#000000">
  <path d="M 266 961.5 L 306 961.5 L 306 47.33333206176758 L 1584 47.33333206176758"/>
</g>
</g>
<g transform="matrix(1, 0, 0, 1, -12, -12)">
<g stroke-width="2" stroke-linecap="butt" fill="none" stroke-opacity="1" stroke="#000000">
  <path d="M 1384 834.2142944335938 L 1424 834.2142944335938 L 1424 84.66666412353516 L 1584 84.66666412353516"/>
</g>
</g>
<g transform="matrix(1, 0, 0, 1, -12, -12)">
<g stroke-linecap="butt" fill="none" stroke-opacity="1" stroke="#000000">
  <path d="M 1026 1148.6666259765625 L 1091 1148.6666259765625 L 1091 1421.1666259765625 L 1585 1421.1666259765625"/>
</g>
</g>
<g transform="matrix(1, 0, 0, 1, -12, -12)">
<g stroke-linecap="butt" fill="none" stroke-opacity="1" stroke="#000000">
  <path d="M 1383 956.5714111328125 L 1474 956.5714111328125 L 1474 1384.8333740234375 L 1585 1384.8333740234375"/>
</g>
</g>
<g transform="matrix(1, 0, 0, 1, -12, -12)">
<g stroke-linecap="butt" fill="none" stroke-opacity="1" stroke="#000000">
  <path d="M 1383 863.4285888671875 L 1424 863.4285888671875 L 1424 858.5 L 1585 858.5"/>
</g>
</g>
</g>
</g>
</g>
</g>
</g>
</g>
</g>
</g>
</g>
</g>
</g>
</g>
</g>
</g>
</g>
</g>
</g>
</g>
</svg>
